<svg xmlns="http://www.w3.org/2000/svg" xmlns:xlink="http://www.w3.org/1999/xlink" version="1.2" width="189.13mm" height="38.64mm" viewBox="7.6083 15.4540 107.6244 21.9866">
<style type="text/css">
<![CDATA[
tspan { white-space: pre; }
]]>
</style>
<g transform="translate(14.4540, 21.9990)">
<line stroke-linejoin="round" stroke-linecap="round" stroke-width="0.1000" stroke="currentColor" x1="0.0500" y1="0" x2="100.7286" y2="0"/>
</g>
<g transform="translate(14.4540, 20.9990)">
<line stroke-linejoin="round" stroke-linecap="round" stroke-width="0.1000" stroke="currentColor" x1="0.0500" y1="0" x2="100.7286" y2="0"/>
</g>
<g transform="translate(14.4540, 19.9990)">
<line stroke-linejoin="round" stroke-linecap="round" stroke-width="0.1000" stroke="currentColor" x1="0.0500" y1="0" x2="100.7286" y2="0"/>
</g>
<g transform="translate(14.4540, 18.9990)">
<line stroke-linejoin="round" stroke-linecap="round" stroke-width="0.1000" stroke="currentColor" x1="0.0500" y1="0" x2="100.7286" y2="0"/>
</g>
<g transform="translate(14.4540, 17.9990)">
<line stroke-linejoin="round" stroke-linecap="round" stroke-width="0.1000" stroke="currentColor" x1="0.0500" y1="0" x2="100.7286" y2="0"/>
</g>
<g transform="translate(115.0426, 19.9990)">
<rect x="0.0000" y="-2.0000" width="0.1900" height="4.0500" ry="0.0000" fill="currentColor"/>
</g>
<g transform="translate(114.5526, 19.9990)">
<rect x="0.0000" y="-2.0000" width="0.1900" height="4.0500" ry="0.0000" fill="currentColor"/>
</g>
<g transform="translate(115.0426, 30.5657)">
<rect x="0.0000" y="-2.0500" width="0.1900" height="4.0500" ry="0.0000" fill="currentColor"/>
</g>
<g transform="translate(114.5526, 30.5657)">
<rect x="0.0000" y="-2.0500" width="0.1900" height="4.0500" ry="0.0000" fill="currentColor"/>
</g>
<g transform="translate(115.0426, 15.4540)">
<rect x="0.0000" y="6.5950" width="0.1900" height="6.5167" ry="0.0000" fill="currentColor"/>
</g>
<g transform="translate(114.5526, 15.4540)">
<rect x="0.0000" y="6.5950" width="0.1900" height="6.5167" ry="0.0000" fill="currentColor"/>
</g>
<g transform="translate(14.4540, 32.5657)">
<line stroke-linejoin="round" stroke-linecap="round" stroke-width="0.1000" stroke="currentColor" x1="0.0500" y1="0" x2="100.7286" y2="0"/>
</g>
<g transform="translate(14.4540, 31.5657)">
<line stroke-linejoin="round" stroke-linecap="round" stroke-width="0.1000" stroke="currentColor" x1="0.0500" y1="0" x2="100.7286" y2="0"/>
</g>
<g transform="translate(14.4540, 30.5657)">
<line stroke-linejoin="round" stroke-linecap="round" stroke-width="0.1000" stroke="currentColor" x1="0.0500" y1="0" x2="100.7286" y2="0"/>
</g>
<g transform="translate(14.4540, 29.5657)">
<line stroke-linejoin="round" stroke-linecap="round" stroke-width="0.1000" stroke="currentColor" x1="0.0500" y1="0" x2="100.7286" y2="0"/>
</g>
<g transform="translate(14.4540, 28.5657)">
<line stroke-linejoin="round" stroke-linecap="round" stroke-width="0.1000" stroke="currentColor" x1="0.0500" y1="0" x2="100.7286" y2="0"/>
</g>
<g transform="translate(14.4540, 15.9990)">
<rect x="97.1220" y="-0.1000" width="2.9430" height="0.2000" ry="0.1000" fill="currentColor"/>
</g>
<g transform="translate(14.4540, 16.9990)">
<rect x="97.1220" y="-0.1000" width="2.9430" height="0.2000" ry="0.1000" fill="currentColor"/>
</g>
<g transform="translate(14.4540, 16.9990)">
<rect x="93.2226" y="-0.1000" width="2.9269" height="0.2000" ry="0.1000" fill="currentColor"/>
</g>
<g transform="translate(14.4540, 16.9990)">
<rect x="90.1957" y="-0.1000" width="2.9269" height="0.2000" ry="0.1000" fill="currentColor"/>
</g>
<g transform="translate(14.4540, 22.9990)">
<rect x="51.2157" y="-0.1000" width="2.9430" height="0.2000" ry="0.1000" fill="currentColor"/>
</g>
<g transform="translate(14.4540, 27.5657)">
<rect x="51.2157" y="-0.1000" width="2.9430" height="0.2000" ry="0.1000" fill="currentColor"/>
</g>
<g transform="translate(14.4540, 33.5657)">
<rect x="12.3553" y="-0.1000" width="2.9001" height="0.2000" ry="0.1000" fill="currentColor"/>
</g>
<g transform="translate(14.4540, 33.5657)">
<rect x="9.3104" y="-0.1000" width="2.9430" height="0.2000" ry="0.1000" fill="currentColor"/>
</g>
<g transform="translate(14.4540, 33.5657)">
<rect x="5.3095" y="-0.1000" width="2.9430" height="0.2000" ry="0.1000" fill="currentColor"/>
</g>
<g transform="translate(14.4540, 34.5657)">
<rect x="5.3095" y="-0.1000" width="2.9430" height="0.2000" ry="0.1000" fill="currentColor"/>
</g>
<g transform="translate(93.1143, 18.9990)">
<path transform="scale(0.0040, -0.0040)" d="M213 112c-50 0 -69 -43 -69 -88c0 -77 57 -136 134 -136c50 0 69 43 69 88c0 77 -57 136 -134 136zM491 0c0 -43 -34 -75 -72 -96c-53 -29 -114 -40 -174 -40s-120 11 -173 40c-38 21 -72 53 -72 96s34 75 72 96c53 29 113 40 173 40s121 -11 174 -40
c38 -21 72 -53 72 -96z" fill="currentColor"/>
</g>
<g transform="translate(96.1591, 18.4990)">
<path transform="scale(0.0040, -0.0040)" d="M213 112c-50 0 -69 -43 -69 -88c0 -77 57 -136 134 -136c50 0 69 43 69 88c0 77 -57 136 -134 136zM491 0c0 -43 -34 -75 -72 -96c-53 -29 -114 -40 -174 -40s-120 11 -173 40c-38 21 -72 53 -72 96s34 75 72 96c53 29 113 40 173 40s121 -11 174 -40
c38 -21 72 -53 72 -96z" fill="currentColor"/>
</g>
<g transform="translate(92.7295, 25.4949)">
<text font-family="Roboto Light" font-size="1.9600" text-anchor="start" fill="currentColor">
<tspan>D5</tspan>
</text>
</g>
<g transform="translate(87.9092, 25.4949)">
<text font-family="Roboto Light" font-size="1.9600" text-anchor="start" fill="currentColor">
<tspan>[C5]</tspan>
</text>
</g>
<g transform="translate(89.1134, 19.4990)">
<path transform="scale(0.0040, -0.0040)" d="M213 112c-50 0 -69 -43 -69 -88c0 -77 57 -136 134 -136c50 0 69 43 69 88c0 77 -57 136 -134 136zM491 0c0 -43 -34 -75 -72 -96c-53 -29 -114 -40 -174 -40s-120 11 -173 40c-38 21 -72 53 -72 96s34 75 72 96c53 29 113 40 173 40s121 -11 174 -40
c38 -21 72 -53 72 -96z" fill="currentColor"/>
</g>
<g transform="translate(70.1611, 22.4990)">
<path transform="scale(0.0040, -0.0040)" d="M213 112c-50 0 -69 -43 -69 -88c0 -77 57 -136 134 -136c50 0 69 43 69 88c0 77 -57 136 -134 136zM491 0c0 -43 -34 -75 -72 -96c-53 -29 -114 -40 -174 -40s-120 11 -173 40c-38 21 -72 53 -72 96s34 75 72 96c53 29 113 40 173 40s121 -11 174 -40
c38 -21 72 -53 72 -96z" fill="currentColor"/>
</g>
<g transform="translate(101.6252, 25.4949)">
<text font-family="Roboto Light" font-size="1.9600" text-anchor="start" fill="currentColor">
<tspan>G5</tspan>
</text>
</g>
<g transform="translate(102.0270, 17.4990)">
<path transform="scale(0.0040, -0.0040)" d="M213 112c-50 0 -69 -43 -69 -88c0 -77 57 -136 134 -136c50 0 69 43 69 88c0 77 -57 136 -134 136zM491 0c0 -43 -34 -75 -72 -96c-53 -29 -114 -40 -174 -40s-120 11 -173 40c-38 21 -72 53 -72 96s34 75 72 96c53 29 113 40 173 40s121 -11 174 -40
c38 -21 72 -53 72 -96z" fill="currentColor"/>
</g>
<g transform="translate(95.9110, 25.4949)">
<text font-family="Roboto Light" font-size="1.9600" text-anchor="start" fill="currentColor">
<tspan>E5</tspan>
</text>
</g>
<g transform="translate(98.8193, 25.4949)">
<text font-family="Roboto Light" font-size="1.9600" text-anchor="start" fill="currentColor">
<tspan>F5</tspan>
</text>
</g>
<g transform="translate(99.0163, 17.9990)">
<path transform="scale(0.0040, -0.0040)" d="M213 112c-50 0 -69 -43 -69 -88c0 -77 57 -136 134 -136c50 0 69 43 69 88c0 77 -57 136 -134 136zM491 0c0 -43 -34 -75 -72 -96c-53 -29 -114 -40 -174 -40s-120 11 -173 40c-38 21 -72 53 -72 96s34 75 72 96c53 29 113 40 173 40s121 -11 174 -40
c38 -21 72 -53 72 -96z" fill="currentColor"/>
</g>
<g transform="translate(75.8662, 25.4949)">
<text font-family="Roboto Light" font-size="1.9600" text-anchor="start" fill="currentColor">
<tspan>F4</tspan>
</text>
</g>
<g transform="translate(76.0631, 21.4990)">
<path transform="scale(0.0040, -0.0040)" d="M213 112c-50 0 -69 -43 -69 -88c0 -77 57 -136 134 -136c50 0 69 43 69 88c0 77 -57 136 -134 136zM491 0c0 -43 -34 -75 -72 -96c-53 -29 -114 -40 -174 -40s-120 11 -173 40c-38 21 -72 53 -72 96s34 75 72 96c53 29 113 40 173 40s121 -11 174 -40
c38 -21 72 -53 72 -96z" fill="currentColor"/>
</g>
<g transform="translate(72.9579, 25.4949)">
<text font-family="Roboto Light" font-size="1.9600" text-anchor="start" fill="currentColor">
<tspan>E4</tspan>
</text>
</g>
<g transform="translate(73.2060, 21.9990)">
<path transform="scale(0.0040, -0.0040)" d="M213 112c-50 0 -69 -43 -69 -88c0 -77 57 -136 134 -136c50 0 69 43 69 88c0 77 -57 136 -134 136zM491 0c0 -43 -34 -75 -72 -96c-53 -29 -114 -40 -174 -40s-120 11 -173 40c-38 21 -72 53 -72 96s34 75 72 96c53 29 113 40 173 40s121 -11 174 -40
c38 -21 72 -53 72 -96z" fill="currentColor"/>
</g>
<g transform="translate(69.7764, 25.4949)">
<text font-family="Roboto Light" font-size="1.9600" text-anchor="start" fill="currentColor">
<tspan>D4</tspan>
</text>
</g>
<g transform="translate(81.8877, 25.4949)">
<text font-family="Roboto Light" font-size="1.9600" text-anchor="start" fill="currentColor">
<tspan>A4</tspan>
</text>
</g>
<g transform="translate(84.8984, 25.4949)">
<text font-family="Roboto Light" font-size="1.9600" text-anchor="start" fill="currentColor">
<tspan>B4</tspan>
</text>
</g>
<g transform="translate(85.1978, 19.9990)">
<path transform="scale(0.0040, -0.0040)" d="M213 112c-50 0 -69 -43 -69 -88c0 -77 57 -136 134 -136c50 0 69 43 69 88c0 77 -57 136 -134 136zM491 0c0 -43 -34 -75 -72 -96c-53 -29 -114 -40 -174 -40s-120 11 -173 40c-38 21 -72 53 -72 96s34 75 72 96c53 29 113 40 173 40s121 -11 174 -40
c38 -21 72 -53 72 -96z" fill="currentColor"/>
</g>
<g transform="translate(82.1871, 20.4990)">
<path transform="scale(0.0040, -0.0040)" d="M213 112c-50 0 -69 -43 -69 -88c0 -77 57 -136 134 -136c50 0 69 43 69 88c0 77 -57 136 -134 136zM491 0c0 -43 -34 -75 -72 -96c-53 -29 -114 -40 -174 -40s-120 11 -173 40c-38 21 -72 53 -72 96s34 75 72 96c53 29 113 40 173 40s121 -11 174 -40
c38 -21 72 -53 72 -96z" fill="currentColor"/>
</g>
<g transform="translate(78.6721, 25.4949)">
<text font-family="Roboto Light" font-size="1.9600" text-anchor="start" fill="currentColor">
<tspan>G4</tspan>
</text>
</g>
<g transform="translate(79.0739, 20.9990)">
<path transform="scale(0.0040, -0.0040)" d="M213 112c-50 0 -69 -43 -69 -88c0 -77 57 -136 134 -136c50 0 69 43 69 88c0 77 -57 136 -134 136zM491 0c0 -43 -34 -75 -72 -96c-53 -29 -114 -40 -174 -40s-120 11 -173 40c-38 21 -72 53 -72 96s34 75 72 96c53 29 113 40 173 40s121 -11 174 -40
c38 -21 72 -53 72 -96z" fill="currentColor"/>
</g>
<g transform="translate(62.2447, 30.5657)">
<path stroke-width="0.0800" stroke-linejoin="round" stroke-linecap="round" stroke="currentColor" fill="currentColor" d="M4.7418 -1.4427C4.8184 -1.5274 4.8896 -1.6184 4.9548 -1.7156L4.9548 -1.7156C4.8889 -1.6272 4.8169 -1.5444 4.7396 -1.4673z"/>
</g>
<g transform="translate(62.2447, 30.5657)">
<path stroke-width="0.0800" stroke-linejoin="round" stroke-linecap="round" stroke="currentColor" fill="currentColor" d="M4.0817 -0.9268C4.1794 -0.9796 4.2740 -1.0388 4.3645 -1.1044L4.3596 -1.1585C4.2686 -1.0985 4.1736 -1.0442 4.0755 -0.9957z"/>
</g>
<g transform="translate(62.2447, 30.5657)">
<path stroke-width="0.0800" stroke-linejoin="round" stroke-linecap="round" stroke="currentColor" fill="currentColor" d="M3.3022 -0.6541C3.4105 -0.6739 3.5178 -0.7004 3.6232 -0.7335L3.6157 -0.8172C3.5102 -0.7864 3.4027 -0.7615 3.2943 -0.7426z"/>
</g>
<g transform="translate(62.2447, 30.5657)">
<path stroke-width="0.0800" stroke-linejoin="round" stroke-linecap="round" stroke="currentColor" fill="currentColor" d="M2.4825 -0.6316C2.5910 -0.6176 2.7005 -0.6105 2.8101 -0.6101L2.8022 -0.6986C2.6926 -0.6980 2.5833 -0.7035 2.4750 -0.7152z"/>
</g>
<g transform="translate(62.2447, 30.5657)">
<path stroke-width="0.0800" stroke-linejoin="round" stroke-linecap="round" stroke="currentColor" fill="currentColor" d="M1.7018 -0.8664C1.7998 -0.8176 1.9009 -0.7759 2.0044 -0.7411L1.9982 -0.8100C1.8952 -0.8405 1.7945 -0.8773 1.6970 -0.9205z"/>
</g>
<g transform="translate(62.2447, 30.5657)">
<path stroke-width="0.0800" stroke-linejoin="round" stroke-linecap="round" stroke="currentColor" fill="currentColor" d="M1.0392 -1.3656C1.1162 -1.2811 1.1984 -1.2038 1.2850 -1.1337L1.2828 -1.1583C1.1969 -1.2209 1.1154 -1.2899 1.0392 -1.3656z"/>
</g>
<g transform="translate(50.2529, 30.5657)">
<path stroke-width="0.0800" stroke-linejoin="round" stroke-linecap="round" stroke="currentColor" fill="currentColor" d="M3.6572 0.3804C3.7524 0.3147 3.8399 0.2417 3.9176 0.1615L3.9176 0.1615C3.8381 0.2277 3.7492 0.2884 3.6527 0.3433z"/>
</g>
<g transform="translate(50.2529, 30.5657)">
<path stroke-width="0.0800" stroke-linejoin="round" stroke-linecap="round" stroke="currentColor" fill="currentColor" d="M2.8305 0.7310C2.9517 0.7037 3.0701 0.6684 3.1839 0.6254L3.1748 0.5512C3.0603 0.5884 2.9414 0.6196 2.8199 0.6444z"/>
</g>
<g transform="translate(50.2529, 30.5657)">
<path stroke-width="0.0800" stroke-linejoin="round" stroke-linecap="round" stroke="currentColor" fill="currentColor" d="M1.9026 0.7823C2.0247 0.7964 2.1492 0.8020 2.2739 0.7991L2.2633 0.7126C2.1389 0.7179 2.0150 0.7165 1.8935 0.7081z"/>
</g>
<g transform="translate(50.2529, 30.5657)">
<path stroke-width="0.0800" stroke-linejoin="round" stroke-linecap="round" stroke="currentColor" fill="currentColor" d="M1.0605 0.5115C1.1588 0.5701 1.2643 0.6195 1.3751 0.6600L1.3705 0.6229C1.2610 0.5932 1.1570 0.5561 1.0605 0.5115z"/>
</g>
<g transform="translate(39.2916, 30.5657)">
<path stroke-width="0.0800" stroke-linejoin="round" stroke-linecap="round" stroke="currentColor" fill="currentColor" d="M4.8051 1.7663C4.8773 1.6966 4.9437 1.6227 5.0036 1.5450L5.0036 1.5450C4.9423 1.6140 4.8745 1.6797 4.8011 1.7419z"/>
</g>
<g transform="translate(39.2916, 30.5657)">
<path stroke-width="0.0800" stroke-linejoin="round" stroke-linecap="round" stroke="currentColor" fill="currentColor" d="M4.1703 2.2106C4.2657 2.1622 4.3574 2.1093 4.4448 2.0521L4.4359 1.9985C4.3476 2.0502 4.2550 2.0982 4.1590 2.1424z"/>
</g>
<g transform="translate(39.2916, 30.5657)">
<path stroke-width="0.0800" stroke-linejoin="round" stroke-linecap="round" stroke="currentColor" fill="currentColor" d="M3.4016 2.4889C3.5095 2.4635 3.6159 2.4333 3.7201 2.3984L3.7063 2.3156C3.6018 2.3482 3.4951 2.3768 3.3870 2.4012z"/>
</g>
<g transform="translate(39.2916, 30.5657)">
<path stroke-width="0.0800" stroke-linejoin="round" stroke-linecap="round" stroke="currentColor" fill="currentColor" d="M2.5786 2.5879C2.6884 2.5872 2.7989 2.5814 2.9092 2.5707L2.8946 2.4830C2.7845 2.4947 2.6743 2.5021 2.5648 2.5051z"/>
</g>
<g transform="translate(39.2916, 30.5657)">
<path stroke-width="0.0800" stroke-linejoin="round" stroke-linecap="round" stroke="currentColor" fill="currentColor" d="M1.7808 2.4943C1.8820 2.5202 1.9859 2.5406 2.0918 2.5557L2.0805 2.4875C1.9753 2.4766 1.8722 2.4611 1.7720 2.4407z"/>
</g>
<g transform="translate(39.2916, 30.5657)">
<path stroke-width="0.0800" stroke-linejoin="round" stroke-linecap="round" stroke="currentColor" fill="currentColor" d="M1.0881 2.1950C1.1699 2.2492 1.2567 2.2976 1.3475 2.3403L1.3435 2.3159C1.2539 2.2807 1.1685 2.2404 1.0881 2.1950z"/>
</g>
<g transform="translate(27.2998, 30.5657)">
<path stroke-width="0.0800" stroke-linejoin="round" stroke-linecap="round" stroke="currentColor" fill="currentColor" d="M3.7022 3.8159C3.7940 3.7341 3.8776 3.6437 3.9508 3.5450L3.9508 3.5450C3.8751 3.6298 3.7894 3.7080 3.6958 3.7791z"/>
</g>
<g transform="translate(27.2998, 30.5657)">
<path stroke-width="0.0800" stroke-linejoin="round" stroke-linecap="round" stroke="currentColor" fill="currentColor" d="M2.8908 4.2610C3.0112 4.2248 3.1284 4.1790 3.2404 4.1241L3.2275 4.0504C3.1146 4.0997 2.9966 4.1414 2.8758 4.1751z"/>
</g>
<g transform="translate(27.2998, 30.5657)">
<path stroke-width="0.0800" stroke-linejoin="round" stroke-linecap="round" stroke="currentColor" fill="currentColor" d="M1.9586 4.3484C2.0826 4.3621 2.2084 4.3653 2.3339 4.3585L2.3189 4.2726C2.1938 4.2819 2.0687 4.2827 1.9457 4.2748z"/>
</g>
<g transform="translate(27.2998, 30.5657)">
<path stroke-width="0.0800" stroke-linejoin="round" stroke-linecap="round" stroke="currentColor" fill="currentColor" d="M1.0937 4.0450C1.1962 4.1130 1.3055 4.1696 1.4196 4.2153L1.4131 4.1785C1.3009 4.1435 1.1938 4.0991 1.0937 4.0450z"/>
</g>
<g transform="translate(73.2060, 19.9990)">
<path stroke-width="0.0800" stroke-linejoin="round" stroke-linecap="round" stroke="currentColor" fill="currentColor" d="M3.7022 2.8159C3.7940 2.7341 3.8776 2.6437 3.9508 2.5450L3.9508 2.5450C3.8751 2.6298 3.7894 2.7080 3.6958 2.7791z"/>
</g>
<g transform="translate(73.2060, 19.9990)">
<path stroke-width="0.0800" stroke-linejoin="round" stroke-linecap="round" stroke="currentColor" fill="currentColor" d="M2.8908 3.2610C3.0112 3.2248 3.1284 3.1790 3.2404 3.1241L3.2275 3.0504C3.1146 3.0997 2.9966 3.1414 2.8758 3.1751z"/>
</g>
<g transform="translate(73.2060, 19.9990)">
<path stroke-width="0.0800" stroke-linejoin="round" stroke-linecap="round" stroke="currentColor" fill="currentColor" d="M1.9586 3.3484C2.0826 3.3621 2.2084 3.3653 2.3339 3.3585L2.3189 3.2726C2.1938 3.2819 2.0687 3.2827 1.9457 3.2748z"/>
</g>
<g transform="translate(73.2060, 19.9990)">
<path stroke-width="0.0800" stroke-linejoin="round" stroke-linecap="round" stroke="currentColor" fill="currentColor" d="M1.0937 3.0450C1.1962 3.1130 1.3055 3.1696 1.4196 3.2153L1.4131 3.1785C1.3009 3.1435 1.1938 3.0991 1.0937 3.0450z"/>
</g>
<g transform="translate(85.1978, 19.9990)">
<path stroke-width="0.0800" stroke-linejoin="round" stroke-linecap="round" stroke="currentColor" fill="currentColor" d="M4.8051 0.7663C4.8773 0.6966 4.9437 0.6227 5.0036 0.5450L5.0036 0.5450C4.9423 0.6140 4.8745 0.6797 4.8011 0.7419z"/>
</g>
<g transform="translate(85.1978, 19.9990)">
<path stroke-width="0.0800" stroke-linejoin="round" stroke-linecap="round" stroke="currentColor" fill="currentColor" d="M4.1703 1.2106C4.2657 1.1622 4.3574 1.1093 4.4448 1.0521L4.4359 0.9985C4.3476 1.0502 4.2550 1.0982 4.1590 1.1424z"/>
</g>
<g transform="translate(85.1978, 19.9990)">
<path stroke-width="0.0800" stroke-linejoin="round" stroke-linecap="round" stroke="currentColor" fill="currentColor" d="M3.4016 1.4889C3.5095 1.4635 3.6159 1.4333 3.7201 1.3984L3.7063 1.3156C3.6018 1.3482 3.4951 1.3768 3.3870 1.4012z"/>
</g>
<g transform="translate(85.1978, 19.9990)">
<path stroke-width="0.0800" stroke-linejoin="round" stroke-linecap="round" stroke="currentColor" fill="currentColor" d="M2.5786 1.5879C2.6884 1.5872 2.7989 1.5814 2.9092 1.5707L2.8946 1.4830C2.7845 1.4947 2.6743 1.5021 2.5648 1.5051z"/>
</g>
<g transform="translate(85.1978, 19.9990)">
<path stroke-width="0.0800" stroke-linejoin="round" stroke-linecap="round" stroke="currentColor" fill="currentColor" d="M1.7808 1.4943C1.8820 1.5202 1.9859 1.5406 2.0918 1.5557L2.0805 1.4875C1.9753 1.4766 1.8722 1.4611 1.7720 1.4407z"/>
</g>
<g transform="translate(85.1978, 19.9990)">
<path stroke-width="0.0800" stroke-linejoin="round" stroke-linecap="round" stroke="currentColor" fill="currentColor" d="M1.0881 1.1950C1.1699 1.2492 1.2567 1.2976 1.3475 1.3403L1.3435 1.3159C1.2539 1.2807 1.1685 1.2404 1.0881 1.1950z"/>
</g>
<g transform="translate(96.1591, 19.9990)">
<path stroke-width="0.0800" stroke-linejoin="round" stroke-linecap="round" stroke="currentColor" fill="currentColor" d="M3.6572 -0.6196C3.7524 -0.6853 3.8399 -0.7583 3.9176 -0.8385L3.9176 -0.8385C3.8381 -0.7723 3.7492 -0.7116 3.6527 -0.6567z"/>
</g>
<g transform="translate(96.1591, 19.9990)">
<path stroke-width="0.0800" stroke-linejoin="round" stroke-linecap="round" stroke="currentColor" fill="currentColor" d="M2.8305 -0.2690C2.9517 -0.2963 3.0701 -0.3316 3.1839 -0.3746L3.1748 -0.4488C3.0603 -0.4116 2.9414 -0.3804 2.8199 -0.3556z"/>
</g>
<g transform="translate(96.1591, 19.9990)">
<path stroke-width="0.0800" stroke-linejoin="round" stroke-linecap="round" stroke="currentColor" fill="currentColor" d="M1.9026 -0.2177C2.0247 -0.2036 2.1492 -0.1980 2.2739 -0.2009L2.2633 -0.2874C2.1389 -0.2821 2.0150 -0.2835 1.8935 -0.2919z"/>
</g>
<g transform="translate(96.1591, 19.9990)">
<path stroke-width="0.0800" stroke-linejoin="round" stroke-linecap="round" stroke="currentColor" fill="currentColor" d="M1.0605 -0.4885C1.1588 -0.4299 1.2643 -0.3805 1.3751 -0.3400L1.3705 -0.3771C1.2610 -0.4068 1.1570 -0.4439 1.0605 -0.4885z"/>
</g>
<g transform="translate(108.1509, 19.9990)">
<path stroke-width="0.0800" stroke-linejoin="round" stroke-linecap="round" stroke="currentColor" fill="currentColor" d="M4.7736 -2.8378C4.8480 -2.8923 4.9169 -2.9500 4.9794 -3.0107L4.9794 -3.0107C4.9157 -2.9588 4.8458 -2.9093 4.7705 -2.8623z"/>
</g>
<g transform="translate(108.1509, 19.9990)">
<path stroke-width="0.0800" stroke-linejoin="round" stroke-linecap="round" stroke="currentColor" fill="currentColor" d="M4.1262 -2.4911C4.2227 -2.5289 4.3159 -2.5701 4.4048 -2.6147L4.3979 -2.6686C4.3083 -2.6296 4.2145 -2.5932 4.1174 -2.5597z"/>
</g>
<g transform="translate(108.1509, 19.9990)">
<path stroke-width="0.0800" stroke-linejoin="round" stroke-linecap="round" stroke="currentColor" fill="currentColor" d="M3.3521 -2.2750C3.4602 -2.2947 3.5671 -2.3181 3.6718 -2.3451L3.6612 -2.4284C3.5562 -2.4036 3.4491 -2.3818 3.3409 -2.3632z"/>
</g>
<g transform="translate(108.1509, 19.9990)">
<path stroke-width="0.0800" stroke-linejoin="round" stroke-linecap="round" stroke="currentColor" fill="currentColor" d="M2.5308 -2.1994C2.6399 -2.1997 2.7499 -2.2039 2.8599 -2.2121L2.8487 -2.3003C2.7388 -2.2911 2.6290 -2.2852 2.5202 -2.2827z"/>
</g>
<g transform="translate(108.1509, 19.9990)">
<path stroke-width="0.0800" stroke-linejoin="round" stroke-linecap="round" stroke="currentColor" fill="currentColor" d="M1.7416 -2.2746C1.8412 -2.2541 1.9437 -2.2379 2.0483 -2.2258L2.0396 -2.2944C1.9355 -2.3022 1.8336 -2.3135 1.7347 -2.3285z"/>
</g>
<g transform="translate(108.1509, 19.9990)">
<path stroke-width="0.0800" stroke-linejoin="round" stroke-linecap="round" stroke="currentColor" fill="currentColor" d="M1.0638 -2.5107C1.1433 -2.4681 1.2277 -2.4300 1.3165 -2.3963L1.3134 -2.4208C1.2256 -2.4470 1.1421 -2.4769 1.0638 -2.5107z"/>
</g>
<g transform="translate(110.8623, 25.4949)">
<text font-family="Roboto Light" font-size="1.9600" text-anchor="start" fill="currentColor">
<tspan>[C6]</tspan>
</text>
</g>
<g transform="translate(112.0665, 15.9990)">
<path transform="scale(0.0040, -0.0040)" d="M213 112c-50 0 -69 -43 -69 -88c0 -77 57 -136 134 -136c50 0 69 43 69 88c0 77 -57 136 -134 136zM491 0c0 -43 -34 -75 -72 -96c-53 -29 -114 -40 -174 -40s-120 11 -173 40c-38 21 -72 53 -72 96s34 75 72 96c53 29 113 40 173 40s121 -11 174 -40
c38 -21 72 -53 72 -96z" fill="currentColor"/>
</g>
<g transform="translate(107.8516, 25.4949)">
<text font-family="Roboto Light" font-size="1.9600" text-anchor="start" fill="currentColor">
<tspan>B5</tspan>
</text>
</g>
<g transform="translate(108.1509, 16.4990)">
<path transform="scale(0.0040, -0.0040)" d="M213 112c-50 0 -69 -43 -69 -88c0 -77 57 -136 134 -136c50 0 69 43 69 88c0 77 -57 136 -134 136zM491 0c0 -43 -34 -75 -72 -96c-53 -29 -114 -40 -174 -40s-120 11 -173 40c-38 21 -72 53 -72 96s34 75 72 96c53 29 113 40 173 40s121 -11 174 -40
c38 -21 72 -53 72 -96z" fill="currentColor"/>
</g>
<g transform="translate(104.8408, 25.4949)">
<text font-family="Roboto Light" font-size="1.9600" text-anchor="start" fill="currentColor">
<tspan>A5</tspan>
</text>
</g>
<g transform="translate(105.1402, 16.9990)">
<path transform="scale(0.0040, -0.0040)" d="M213 112c-50 0 -69 -43 -69 -88c0 -77 57 -136 134 -136c50 0 69 43 69 88c0 77 -57 136 -134 136zM491 0c0 -43 -34 -75 -72 -96c-53 -29 -114 -40 -174 -40s-120 11 -173 40c-38 21 -72 53 -72 96s34 75 72 96c53 29 113 40 173 40s121 -11 174 -40
c38 -21 72 -53 72 -96z" fill="currentColor"/>
</g>
<g transform="translate(32.7658, 37.0654)">
<text font-family="Roboto Light" font-size="1.9600" text-anchor="start" fill="currentColor">
<tspan>G2</tspan>
</text>
</g>
<g transform="translate(33.1676, 32.5657)">
<path transform="scale(0.0040, -0.0040)" d="M213 112c-50 0 -69 -43 -69 -88c0 -77 57 -136 134 -136c50 0 69 43 69 88c0 77 -57 136 -134 136zM491 0c0 -43 -34 -75 -72 -96c-53 -29 -114 -40 -174 -40s-120 11 -173 40c-38 21 -72 53 -72 96s34 75 72 96c53 29 113 40 173 40s121 -11 174 -40
c38 -21 72 -53 72 -96z" fill="currentColor"/>
</g>
<g transform="translate(29.9600, 37.0654)">
<text font-family="Roboto Light" font-size="1.9600" text-anchor="start" fill="currentColor">
<tspan>F2</tspan>
</text>
</g>
<g transform="translate(30.1569, 33.0657)">
<path transform="scale(0.0040, -0.0040)" d="M213 112c-50 0 -69 -43 -69 -88c0 -77 57 -136 134 -136c50 0 69 43 69 88c0 77 -57 136 -134 136zM491 0c0 -43 -34 -75 -72 -96c-53 -29 -114 -40 -174 -40s-120 11 -173 40c-38 21 -72 53 -72 96s34 75 72 96c53 29 113 40 173 40s121 -11 174 -40
c38 -21 72 -53 72 -96z" fill="currentColor"/>
</g>
<g transform="translate(27.0516, 37.0654)">
<text font-family="Roboto Light" font-size="1.9600" text-anchor="start" fill="currentColor">
<tspan>E2</tspan>
</text>
</g>
<g transform="translate(27.2998, 33.5657)">
<path transform="scale(0.0040, -0.0040)" d="M213 112c-50 0 -69 -43 -69 -88c0 -77 57 -136 134 -136c50 0 69 43 69 88c0 77 -57 136 -134 136zM491 0c0 -43 -34 -75 -72 -96c-53 -29 -114 -40 -174 -40s-120 11 -173 40c-38 21 -72 53 -72 96s34 75 72 96c53 29 113 40 173 40s121 -11 174 -40
c38 -21 72 -53 72 -96z" fill="currentColor"/>
</g>
<g transform="translate(42.0029, 37.0654)">
<text font-family="Roboto Light" font-size="1.9600" text-anchor="start" fill="currentColor">
<tspan>[C3]</tspan>
</text>
</g>
<g transform="translate(43.2071, 31.0657)">
<path transform="scale(0.0040, -0.0040)" d="M213 112c-50 0 -69 -43 -69 -88c0 -77 57 -136 134 -136c50 0 69 43 69 88c0 77 -57 136 -134 136zM491 0c0 -43 -34 -75 -72 -96c-53 -29 -114 -40 -174 -40s-120 11 -173 40c-38 21 -72 53 -72 96s34 75 72 96c53 29 113 40 173 40s121 -11 174 -40
c38 -21 72 -53 72 -96z" fill="currentColor"/>
</g>
<g transform="translate(38.9922, 37.0654)">
<text font-family="Roboto Light" font-size="1.9600" text-anchor="start" fill="currentColor">
<tspan>B2</tspan>
</text>
</g>
<g transform="translate(39.2916, 31.5657)">
<path transform="scale(0.0040, -0.0040)" d="M213 112c-50 0 -69 -43 -69 -88c0 -77 57 -136 134 -136c50 0 69 43 69 88c0 77 -57 136 -134 136zM491 0c0 -43 -34 -75 -72 -96c-53 -29 -114 -40 -174 -40s-120 11 -173 40c-38 21 -72 53 -72 96s34 75 72 96c53 29 113 40 173 40s121 -11 174 -40
c38 -21 72 -53 72 -96z" fill="currentColor"/>
</g>
<g transform="translate(35.9815, 37.0654)">
<text font-family="Roboto Light" font-size="1.9600" text-anchor="start" fill="currentColor">
<tspan>A2</tspan>
</text>
</g>
<g transform="translate(36.2808, 32.0657)">
<path transform="scale(0.0040, -0.0040)" d="M213 112c-50 0 -69 -43 -69 -88c0 -77 57 -136 134 -136c50 0 69 43 69 88c0 77 -57 136 -134 136zM491 0c0 -43 -34 -75 -72 -96c-53 -29 -114 -40 -174 -40s-120 11 -173 40c-38 21 -72 53 -72 96s34 75 72 96c53 29 113 40 173 40s121 -11 174 -40
c38 -21 72 -53 72 -96z" fill="currentColor"/>
</g>
<g transform="translate(14.3940, 25.2824)">
<rect x="0.0000" y="-7.3334" width="0.1600" height="14.6667" ry="0.0500" fill="currentColor"/>
</g>
<g transform="translate(15.2540, 29.5657)">
<path transform="scale(0.0040, -0.0040)" d="M557 -125c0 28 23 51 51 51s51 -23 51 -51s-23 -51 -51 -51s-51 23 -51 51zM557 125c0 28 23 51 51 51s51 -23 51 -51s-23 -51 -51 -51s-51 23 -51 51zM232 263c172 0 293 -88 293 -251c0 -263 -263 -414 -516 -521c-3 -3 -6 -4 -9 -4c-7 0 -13 6 -13 13c0 3 1 6 4 9
c202 118 412 265 412 493c0 120 -63 235 -171 235c-74 0 -129 -54 -154 -126c11 5 22 8 34 8c55 0 100 -45 100 -100c0 -58 -44 -106 -100 -106c-60 0 -112 47 -112 106c0 133 102 244 232 244z" fill="currentColor"/>
</g>
<g transform="translate(20.2540, 34.5657)">
<path transform="scale(0.0040, -0.0040)" d="M213 112c-50 0 -69 -43 -69 -88c0 -77 57 -136 134 -136c50 0 69 43 69 88c0 77 -57 136 -134 136zM491 0c0 -43 -34 -75 -72 -96c-53 -29 -114 -40 -174 -40s-120 11 -173 40c-38 21 -72 53 -72 96s34 75 72 96c53 29 113 40 173 40s121 -11 174 -40
c38 -21 72 -53 72 -96z" fill="currentColor"/>
</g>
<g transform="translate(15.2540, 20.9990)">
<path transform="scale(0.0040, -0.0040)" d="M266 -635h-6c-108 0 -195 88 -195 197c0 58 53 103 112 103c54 0 95 -47 95 -103c0 -52 -43 -95 -95 -95c-11 0 -21 2 -31 6c26 -39 68 -65 117 -65h4zM461 -203c68 24 113 95 113 164c0 90 -66 179 -173 190c24 -116 46 -231 60 -354zM74 28c0 -135 129 -247 264 -247
c28 0 55 2 82 6c-14 127 -37 245 -63 364c-79 -8 -124 -61 -124 -119c0 -44 25 -91 81 -123c5 -5 7 -10 7 -15c0 -11 -10 -22 -22 -22c-3 0 -6 1 -9 2c-80 43 -117 115 -117 185c0 88 58 174 160 197c-14 58 -29 117 -46 175c-107 -121 -213 -243 -213 -403zM335 -262
c-188 0 -333 172 -333 374c0 177 131 306 248 441c-19 62 -37 125 -45 190c-6 52 -7 104 -7 156c0 115 55 224 149 292c6 5 14 5 20 0c71 -84 133 -245 133 -358c0 -143 -86 -255 -180 -364c21 -68 39 -138 56 -207c4 0 9 1 13 1c155 0 256 -128 256 -261
c0 -76 -33 -154 -107 -210c-22 -17 -47 -28 -73 -36c3 -35 5 -70 5 -105c0 -19 -1 -39 -2 -58c-7 -119 -88 -225 -202 -228l1 43c93 2 153 92 159 191c1 18 2 37 2 55c0 31 -1 61 -4 92c-29 -5 -58 -8 -89 -8zM428 916c0 55 -4 79 -20 129c-99 -48 -162 -149 -162 -259
c0 -74 18 -133 36 -194c80 97 146 198 146 324z" fill="currentColor"/>
</g>
<g transform="translate(14.0940, 25.2824)">
<path transform="scale(0.0040, -0.0040)" d="M-204 -1280c0 300 120 588 120 872c0 148 -36 288 -140 400v8v8c104 112 140 252 140 400c0 284 -120 572 -120 872c0 208 52 404 192 556c16 16 40 -8 24 -24c-104 -112 -140 -252 -140 -404c0 -280 112 -564 112 -856c0 -204 -48 -400 -184 -552
c136 -152 184 -348 184 -552c0 -292 -112 -576 -112 -856c0 -152 36 -292 140 -404c16 -16 -8 -40 -24 -24c-140 152 -192 348 -192 556z" fill="currentColor"/>
</g>
<g transform="translate(7.6083, 25.9848)">
<text font-family="Roboto Slab Light" font-size="1.9600" text-anchor="start" fill="currentColor">
<tspan>Piano</tspan>
</text>
</g>
<g transform="translate(23.8702, 37.0654)">
<text font-family="Roboto Light" font-size="1.9600" text-anchor="start" fill="currentColor">
<tspan>D2</tspan>
</text>
</g>
<g transform="translate(24.2549, 34.0657)">
<path transform="scale(0.0040, -0.0040)" d="M213 112c-50 0 -69 -43 -69 -88c0 -77 57 -136 134 -136c50 0 69 43 69 88c0 77 -57 136 -134 136zM491 0c0 -43 -34 -75 -72 -96c-53 -29 -114 -40 -174 -40s-120 11 -173 40c-38 21 -72 53 -72 96s34 75 72 96c53 29 113 40 173 40s121 -11 174 -40
c38 -21 72 -53 72 -96z" fill="currentColor"/>
</g>
<g transform="translate(19.0498, 37.0654)">
<text font-family="Roboto Light" font-size="1.9600" text-anchor="start" fill="currentColor">
<tspan>[C2]</tspan>
</text>
</g>
<g transform="translate(62.2447, 28.0657)">
<path transform="scale(0.0040, -0.0040)" d="M213 112c-50 0 -69 -43 -69 -88c0 -77 57 -136 134 -136c50 0 69 43 69 88c0 77 -57 136 -134 136zM491 0c0 -43 -34 -75 -72 -96c-53 -29 -114 -40 -174 -40s-120 11 -173 40c-38 21 -72 53 -72 96s34 75 72 96c53 29 113 40 173 40s121 -11 174 -40
c38 -21 72 -53 72 -96z" fill="currentColor"/>
</g>
<g transform="translate(58.9346, 37.0654)">
<text font-family="Roboto Light" font-size="1.9600" text-anchor="start" fill="currentColor">
<tspan>A3</tspan>
</text>
</g>
<g transform="translate(59.2339, 28.5657)">
<path transform="scale(0.0040, -0.0040)" d="M213 112c-50 0 -69 -43 -69 -88c0 -77 57 -136 134 -136c50 0 69 43 69 88c0 77 -57 136 -134 136zM491 0c0 -43 -34 -75 -72 -96c-53 -29 -114 -40 -174 -40s-120 11 -173 40c-38 21 -72 53 -72 96s34 75 72 96c53 29 113 40 173 40s121 -11 174 -40
c38 -21 72 -53 72 -96z" fill="currentColor"/>
</g>
<g transform="translate(61.9453, 37.0654)">
<text font-family="Roboto Light" font-size="1.9600" text-anchor="start" fill="currentColor">
<tspan>B3</tspan>
</text>
</g>
<g transform="translate(55.7190, 37.0654)">
<text font-family="Roboto Light" font-size="1.9600" text-anchor="start" fill="currentColor">
<tspan>G3</tspan>
</text>
</g>
<g transform="translate(64.9561, 37.0654)">
<text font-family="Roboto Light" font-size="1.9600" text-anchor="start" fill="currentColor">
<tspan>[C4]</tspan>
</text>
</g>
<g transform="translate(56.1208, 29.0657)">
<path transform="scale(0.0040, -0.0040)" d="M213 112c-50 0 -69 -43 -69 -88c0 -77 57 -136 134 -136c50 0 69 43 69 88c0 77 -57 136 -134 136zM491 0c0 -43 -34 -75 -72 -96c-53 -29 -114 -40 -174 -40s-120 11 -173 40c-38 21 -72 53 -72 96s34 75 72 96c53 29 113 40 173 40s121 -11 174 -40
c38 -21 72 -53 72 -96z" fill="currentColor"/>
</g>
<g transform="translate(66.1602, 27.5657)">
<path transform="scale(0.0040, -0.0040)" d="M213 112c-50 0 -69 -43 -69 -88c0 -77 57 -136 134 -136c50 0 69 43 69 88c0 77 -57 136 -134 136zM491 0c0 -43 -34 -75 -72 -96c-53 -29 -114 -40 -174 -40s-120 11 -173 40c-38 21 -72 53 -72 96s34 75 72 96c53 29 113 40 173 40s121 -11 174 -40
c38 -21 72 -53 72 -96z" fill="currentColor"/>
</g>
<g transform="translate(64.9561, 25.4949)">
<text font-family="Roboto Light" font-size="1.9600" text-anchor="start" fill="currentColor">
<tspan>[C4]</tspan>
</text>
</g>
<g transform="translate(66.1602, 22.9990)">
<path transform="scale(0.0040, -0.0040)" d="M213 112c-50 0 -69 -43 -69 -88c0 -77 57 -136 134 -136c50 0 69 43 69 88c0 77 -57 136 -134 136zM491 0c0 -43 -34 -75 -72 -96c-53 -29 -114 -40 -174 -40s-120 11 -173 40c-38 21 -72 53 -72 96s34 75 72 96c53 29 113 40 173 40s121 -11 174 -40
c38 -21 72 -53 72 -96z" fill="currentColor"/>
</g>
<g transform="translate(52.9131, 37.0654)">
<text font-family="Roboto Light" font-size="1.9600" text-anchor="start" fill="currentColor">
<tspan>F3</tspan>
</text>
</g>
<g transform="translate(47.2080, 30.5657)">
<path transform="scale(0.0040, -0.0040)" d="M213 112c-50 0 -69 -43 -69 -88c0 -77 57 -136 134 -136c50 0 69 43 69 88c0 77 -57 136 -134 136zM491 0c0 -43 -34 -75 -72 -96c-53 -29 -114 -40 -174 -40s-120 11 -173 40c-38 21 -72 53 -72 96s34 75 72 96c53 29 113 40 173 40s121 -11 174 -40
c38 -21 72 -53 72 -96z" fill="currentColor"/>
</g>
<g transform="translate(46.8233, 37.0654)">
<text font-family="Roboto Light" font-size="1.9600" text-anchor="start" fill="currentColor">
<tspan>D3</tspan>
</text>
</g>
<g transform="translate(50.2529, 30.0657)">
<path transform="scale(0.0040, -0.0040)" d="M213 112c-50 0 -69 -43 -69 -88c0 -77 57 -136 134 -136c50 0 69 43 69 88c0 77 -57 136 -134 136zM491 0c0 -43 -34 -75 -72 -96c-53 -29 -114 -40 -174 -40s-120 11 -173 40c-38 21 -72 53 -72 96s34 75 72 96c53 29 113 40 173 40s121 -11 174 -40
c38 -21 72 -53 72 -96z" fill="currentColor"/>
</g>
<g transform="translate(50.0048, 37.0654)">
<text font-family="Roboto Light" font-size="1.9600" text-anchor="start" fill="currentColor">
<tspan>E3</tspan>
</text>
</g>
<g transform="translate(53.1100, 29.5657)">
<path transform="scale(0.0040, -0.0040)" d="M213 112c-50 0 -69 -43 -69 -88c0 -77 57 -136 134 -136c50 0 69 43 69 88c0 77 -57 136 -134 136zM491 0c0 -43 -34 -75 -72 -96c-53 -29 -114 -40 -174 -40s-120 11 -173 40c-38 21 -72 53 -72 96s34 75 72 96c53 29 113 40 173 40s121 -11 174 -40
c38 -21 72 -53 72 -96z" fill="currentColor"/>
</g>
</svg>
