<svg xmlns="http://www.w3.org/2000/svg" xmlns:xlink="http://www.w3.org/1999/xlink" version="1.2" width="159.20mm" height="19.12mm" viewBox="14.4540 15.4540 90.5936 10.8828">
<style type="text/css">
<![CDATA[
tspan { white-space: pre; }
]]>
</style>
<g transform="translate(48.7841, 20.3942)">
<rect x="0.0000" y="-1.0000" width="0.1900" height="2.0000" ry="0.0000" fill="currentColor"/>
</g>
<g transform="translate(86.5709, 20.3942)">
<rect x="0.0000" y="-1.0000" width="0.1900" height="2.0000" ry="0.0000" fill="currentColor"/>
</g>
<g transform="translate(94.6632, 20.3942)">
<rect x="0.0000" y="-1.0000" width="0.1900" height="2.0000" ry="0.0000" fill="currentColor"/>
</g>
<g transform="translate(78.4785, 20.3942)">
<rect x="0.0000" y="-1.0000" width="0.1900" height="2.0000" ry="0.0000" fill="currentColor"/>
</g>
<g transform="translate(37.5817, 20.3942)">
<rect x="0.0000" y="-1.0000" width="0.1900" height="2.0000" ry="0.0000" fill="currentColor"/>
</g>
<g transform="translate(58.6822, 20.3942)">
<rect x="0.0000" y="-1.0000" width="0.1900" height="2.0000" ry="0.0000" fill="currentColor"/>
</g>
<g transform="translate(104.8576, 20.3942)">
<rect x="0.0000" y="-1.0000" width="0.1900" height="2.0000" ry="0.0000" fill="currentColor"/>
</g>
<g transform="translate(68.5804, 20.3942)">
<rect x="0.0000" y="-1.0000" width="0.1900" height="2.0000" ry="0.0000" fill="currentColor"/>
</g>
<g transform="translate(14.4540, 20.3942)">
<line stroke-linejoin="round" stroke-linecap="round" stroke-width="0.1000" stroke="currentColor" x1="0.0500" y1="0" x2="90.5436" y2="0"/>
</g>
<g transform="translate(96.9306, 17.3942)">
<polygon stroke-linejoin="round" stroke-linecap="round" stroke-width="0.0800" fill="currentColor" stroke="currentColor" points="6.1187 -0.2000 6.1187 0.2000 0.0400 0.2000 0.0400 -0.2000"/>
</g>
<g transform="translate(80.8109, 20.3942)">
<rect x="-0.0650" y="-3.1900" width="0.1300" height="3.0039" ry="0.0400" fill="currentColor"/>
</g>
<g transform="translate(84.0000, 20.3942)">
<path transform="scale(0.0040, -0.0040)" d="M218 136c55 0 108 -28 108 -89c0 -71 -55 -121 -102 -149c-35 -21 -75 -34 -116 -34c-55 0 -108 28 -108 89c0 71 55 121 102 149c35 21 75 34 116 34z" fill="currentColor"/>
</g>
<g transform="translate(85.2392, 20.3942)">
<rect x="-0.0650" y="-3.1900" width="0.1300" height="3.0039" ry="0.0400" fill="currentColor"/>
</g>
<g transform="translate(81.3259, 19.8942)">
<path transform="scale(0.0040, -0.0040)" d="M0 0c0 31 25 56 56 56s56 -25 56 -56s-25 -56 -56 -56s-56 25 -56 56z" fill="currentColor"/>
</g>
<g transform="translate(87.6641, 20.3942)">
<path transform="scale(0.0040, -0.0040)" d="M218 136c55 0 108 -28 108 -89c0 -71 -55 -121 -102 -149c-35 -21 -75 -34 -116 -34c-55 0 -108 28 -108 89c0 71 55 121 102 149c35 21 75 34 116 34z" fill="currentColor"/>
</g>
<g transform="translate(87.6162, 25.8942)">
<text font-family="Roboto Light" font-size="2.2001" text-anchor="start" fill="currentColor">
<tspan>7</tspan>
</text>
</g>
<g transform="translate(88.9033, 20.3942)">
<rect x="-0.0650" y="-3.1900" width="0.1300" height="3.0039" ry="0.0400" fill="currentColor"/>
</g>
<g transform="translate(72.1863, 20.3942)">
<path transform="scale(0.0040, -0.0040)" d="M218 136c55 0 108 -28 108 -89c0 -71 -55 -121 -102 -149c-35 -21 -75 -34 -116 -34c-55 0 -108 28 -108 89c0 71 55 121 102 149c35 21 75 34 116 34z" fill="currentColor"/>
</g>
<g transform="translate(73.4256, 20.3942)">
<rect x="-0.0650" y="-3.1900" width="0.1300" height="3.0039" ry="0.0400" fill="currentColor"/>
</g>
<g transform="translate(70.9128, 20.3942)">
<rect x="-0.0650" y="-3.1900" width="0.1300" height="3.0039" ry="0.0400" fill="currentColor"/>
</g>
<g transform="translate(75.9076, 20.3942)">
<path transform="scale(0.0040, -0.0040)" d="M218 136c55 0 108 -28 108 -89c0 -71 -55 -121 -102 -149c-35 -21 -75 -34 -116 -34c-55 0 -108 28 -108 89c0 71 55 121 102 149c35 21 75 34 116 34z" fill="currentColor"/>
</g>
<g transform="translate(77.1468, 20.3942)">
<rect x="-0.0650" y="-3.1900" width="0.1300" height="3.0039" ry="0.0400" fill="currentColor"/>
</g>
<g transform="translate(69.6258, 25.8942)">
<text font-family="Roboto Light" font-size="2.2001" text-anchor="start" fill="currentColor">
<tspan>5</tspan>
</text>
</g>
<g transform="translate(79.5717, 20.3942)">
<path transform="scale(0.0040, -0.0040)" d="M218 136c55 0 108 -28 108 -89c0 -71 -55 -121 -102 -149c-35 -21 -75 -34 -116 -34c-55 0 -108 28 -108 89c0 71 55 121 102 149c35 21 75 34 116 34z" fill="currentColor"/>
</g>
<g transform="translate(69.6736, 20.3942)">
<path transform="scale(0.0040, -0.0040)" d="M218 136c55 0 108 -28 108 -89c0 -71 -55 -121 -102 -149c-35 -21 -75 -34 -116 -34c-55 0 -108 28 -108 89c0 71 55 121 102 149c35 21 75 34 116 34z" fill="currentColor"/>
</g>
<g transform="translate(79.5239, 25.8942)">
<text font-family="Roboto Light" font-size="2.2001" text-anchor="start" fill="currentColor">
<tspan>6</tspan>
</text>
</g>
<g transform="translate(31.2552, 17.3942)">
<polygon stroke-linejoin="round" stroke-linecap="round" stroke-width="0.0800" fill="currentColor" stroke="currentColor" points="3.8113 -0.2000 3.8113 0.2000 0.0400 0.2000 0.0400 -0.2000"/>
</g>
<g transform="translate(101.7851, 20.3942)">
<path transform="scale(0.0040, -0.0040)" d="M218 136c55 0 108 -28 108 -89c0 -71 -55 -121 -102 -149c-35 -21 -75 -34 -116 -34c-55 0 -108 28 -108 89c0 71 55 121 102 149c35 21 75 34 116 34z" fill="currentColor"/>
</g>
<g transform="translate(103.0243, 20.3942)">
<rect x="-0.0650" y="-3.0000" width="0.1300" height="2.8139" ry="0.0400" fill="currentColor"/>
</g>
<g transform="translate(39.8492, 17.2042)">
<polygon stroke-linejoin="round" stroke-linecap="round" stroke-width="0.0800" fill="currentColor" stroke="currentColor" points="7.6283 -0.2000 7.6283 0.2000 0.0400 0.2000 0.0400 -0.2000"/>
</g>
<g transform="translate(39.8492, 18.0142)">
<polygon stroke-linejoin="round" stroke-linecap="round" stroke-width="0.0800" fill="currentColor" stroke="currentColor" points="7.6283 -0.2000 7.6283 0.2000 0.0400 0.2000 0.0400 -0.2000"/>
</g>
<g transform="translate(51.0515, 17.2042)">
<polygon stroke-linejoin="round" stroke-linecap="round" stroke-width="0.0800" fill="currentColor" stroke="currentColor" points="6.3240 -0.2000 6.3240 0.2000 0.0400 0.2000 0.0400 -0.2000"/>
</g>
<g transform="translate(54.7728, 18.0142)">
<polygon stroke-linejoin="round" stroke-linecap="round" stroke-width="0.0800" fill="currentColor" stroke="currentColor" points="2.6028 -0.2000 2.6028 0.2000 0.0400 0.2000 0.0400 -0.2000"/>
</g>
<g transform="translate(60.9497, 17.2042)">
<polygon stroke-linejoin="round" stroke-linecap="round" stroke-width="0.0800" fill="currentColor" stroke="currentColor" points="5.1155 -0.2000 5.1155 0.2000 0.0400 0.2000 0.0400 -0.2000"/>
</g>
<g transform="translate(60.9497, 18.0142)">
<polygon stroke-linejoin="round" stroke-linecap="round" stroke-width="0.0800" fill="currentColor" stroke="currentColor" points="2.6028 -0.2000 2.6028 0.2000 0.0400 0.2000 0.0400 -0.2000"/>
</g>
<g transform="translate(70.8478, 17.2042)">
<polygon stroke-linejoin="round" stroke-linecap="round" stroke-width="0.0800" fill="currentColor" stroke="currentColor" points="6.3240 -0.2000 6.3240 0.2000 0.0400 0.2000 0.0400 -0.2000"/>
</g>
<g transform="translate(76.0468, 18.0142)">
<polygon stroke-linejoin="round" stroke-linecap="round" stroke-width="0.0800" fill="currentColor" stroke="currentColor" points="1.1250 -0.2000 1.1250 0.2000 0.0400 0.2000 0.0400 -0.2000"/>
</g>
<g transform="translate(70.8478, 18.0142)">
<polygon stroke-linejoin="round" stroke-linecap="round" stroke-width="0.0800" fill="currentColor" stroke="currentColor" points="1.1250 -0.2000 1.1250 0.2000 0.0400 0.2000 0.0400 -0.2000"/>
</g>
<g transform="translate(80.7459, 17.2042)">
<polygon stroke-linejoin="round" stroke-linecap="round" stroke-width="0.0800" fill="currentColor" stroke="currentColor" points="4.5182 -0.2000 4.5182 0.2000 0.0400 0.2000 0.0400 -0.2000"/>
</g>
<g transform="translate(84.1392, 18.0142)">
<polygon stroke-linejoin="round" stroke-linecap="round" stroke-width="0.0800" fill="currentColor" stroke="currentColor" points="1.1250 -0.2000 1.1250 0.2000 0.0400 0.2000 0.0400 -0.2000"/>
</g>
<g transform="translate(99.5661, 16.6340)">
<text font-family="serif" font-style="italic" font-size="1.7461" text-anchor="start" fill="currentColor">
<tspan>3</tspan>
</text>
</g>
<g transform="translate(88.8383, 17.2042)">
<polygon stroke-linejoin="round" stroke-linecap="round" stroke-width="0.0800" fill="currentColor" stroke="currentColor" points="2.6028 -0.2000 2.6028 0.2000 0.0400 0.2000 0.0400 -0.2000"/>
</g>
<g transform="translate(88.8383, 18.0142)">
<polygon stroke-linejoin="round" stroke-linecap="round" stroke-width="0.0800" fill="currentColor" stroke="currentColor" points="1.1250 -0.2000 1.1250 0.2000 0.0400 0.2000 0.0400 -0.2000"/>
</g>
<g transform="translate(90.1768, 20.3942)">
<path transform="scale(0.0040, -0.0040)" d="M218 136c55 0 108 -28 108 -89c0 -71 -55 -121 -102 -149c-35 -21 -75 -34 -116 -34c-55 0 -108 28 -108 89c0 71 55 121 102 149c35 21 75 34 116 34z" fill="currentColor"/>
</g>
<g transform="translate(91.9310, 19.8942)">
<path transform="scale(0.0040, -0.0040)" d="M0 0c0 31 25 56 56 56s56 -25 56 -56s-25 -56 -56 -56s-56 25 -56 56z" fill="currentColor"/>
</g>
<g transform="translate(91.4160, 20.3942)">
<rect x="-0.0650" y="-3.1900" width="0.1300" height="3.0039" ry="0.0400" fill="currentColor"/>
</g>
<g transform="translate(95.7564, 20.3942)">
<path transform="scale(0.0040, -0.0040)" d="M218 136c55 0 108 -28 108 -89c0 -71 -55 -121 -102 -149c-35 -21 -75 -34 -116 -34c-55 0 -108 28 -108 89c0 71 55 121 102 149c35 21 75 34 116 34z" fill="currentColor"/>
</g>
<g transform="translate(95.7086, 25.8942)">
<text font-family="Roboto Light" font-size="2.2001" text-anchor="start" fill="currentColor">
<tspan>8</tspan>
</text>
</g>
<g transform="translate(96.9956, 20.3942)">
<rect x="-0.0650" y="-3.0000" width="0.1300" height="2.8139" ry="0.0400" fill="currentColor"/>
</g>
<g transform="translate(98.7708, 20.3942)">
<path transform="scale(0.0040, -0.0040)" d="M218 136c55 0 108 -28 108 -89c0 -71 -55 -121 -102 -149c-35 -21 -75 -34 -116 -34c-55 0 -108 28 -108 89c0 71 55 121 102 149c35 21 75 34 116 34z" fill="currentColor"/>
</g>
<g transform="translate(100.0100, 20.3942)">
<rect x="-0.0650" y="-3.0000" width="0.1300" height="2.8139" ry="0.0400" fill="currentColor"/>
</g>
<g transform="translate(43.7005, 20.3942)">
<path transform="scale(0.0040, -0.0040)" d="M218 136c55 0 108 -28 108 -89c0 -71 -55 -121 -102 -149c-35 -21 -75 -34 -116 -34c-55 0 -108 28 -108 89c0 71 55 121 102 149c35 21 75 34 116 34z" fill="currentColor"/>
</g>
<g transform="translate(41.1877, 20.3942)">
<path transform="scale(0.0040, -0.0040)" d="M218 136c55 0 108 -28 108 -89c0 -71 -55 -121 -102 -149c-35 -21 -75 -34 -116 -34c-55 0 -108 28 -108 89c0 71 55 121 102 149c35 21 75 34 116 34z" fill="currentColor"/>
</g>
<g transform="translate(42.4269, 20.3942)">
<rect x="-0.0650" y="-3.1900" width="0.1300" height="3.0039" ry="0.0400" fill="currentColor"/>
</g>
<g transform="translate(44.9397, 20.3942)">
<rect x="-0.0650" y="-3.1900" width="0.1300" height="3.0039" ry="0.0400" fill="currentColor"/>
</g>
<g transform="translate(46.2132, 20.3942)">
<path transform="scale(0.0040, -0.0040)" d="M218 136c55 0 108 -28 108 -89c0 -71 -55 -121 -102 -149c-35 -21 -75 -34 -116 -34c-55 0 -108 28 -108 89c0 71 55 121 102 149c35 21 75 34 116 34z" fill="currentColor"/>
</g>
<g transform="translate(47.4524, 20.3942)">
<rect x="-0.0650" y="-3.1900" width="0.1300" height="3.0039" ry="0.0400" fill="currentColor"/>
</g>
<g transform="translate(49.8773, 20.3942)">
<path transform="scale(0.0040, -0.0040)" d="M218 136c55 0 108 -28 108 -89c0 -71 -55 -121 -102 -149c-35 -21 -75 -34 -116 -34c-55 0 -108 28 -108 89c0 71 55 121 102 149c35 21 75 34 116 34z" fill="currentColor"/>
</g>
<g transform="translate(49.8295, 25.8942)">
<text font-family="Roboto Light" font-size="2.2001" text-anchor="start" fill="currentColor">
<tspan>3</tspan>
</text>
</g>
<g transform="translate(30.0810, 20.3942)">
<path transform="scale(0.0040, -0.0040)" d="M218 136c55 0 108 -28 108 -89c0 -71 -55 -121 -102 -149c-35 -21 -75 -34 -116 -34c-55 0 -108 28 -108 89c0 71 55 121 102 149c35 21 75 34 116 34z" fill="currentColor"/>
</g>
<g transform="translate(15.6247, 20.3942)">
<path transform="scale(0.0040, -0.0040)" d="M175 487c18 0 58 31 58 -3v-367c0 -48 28 -94 73 -94c8 0 12 -5 12 -11s-4 -12 -12 -12c-44 0 -87 13 -131 13s-87 -13 -131 -13c-8 0 -12 6 -12 12s4 11 12 11c45 0 73 46 73 94v245c0 12 -9 19 -17 19c-4 0 -8 -3 -10 -7l-64 -136c-3 -6 -7 -9 -12 -9
c-8 0 -16 6 -16 14c0 2 1 5 2 7l117 250c3 6 10 3 16 0c13 -6 27 -13 42 -13z" fill="currentColor"/>
</g>
<g transform="translate(15.4540, 22.4102)">
<path transform="scale(0.0040, -0.0040)" d="M196 117h117c0 -48 27 -94 72 -94c8 0 12 -5 12 -11s-4 -12 -12 -12c-44 0 -87 13 -131 13s-87 -13 -131 -13c-8 0 -12 6 -12 12s4 11 12 11c45 0 73 46 73 94zM204 307c22 14 44 29 60 50c11 15 19 33 27 50c2 4 5 6 9 6c6 0 13 -5 13 -14v-245h72c10 0 15 -7 15 -14
s-5 -15 -15 -15h-72v-8h-117v8h-167c-23 0 -31 14 -31 23c0 3 1 5 2 6c80 93 138 207 138 330c0 10 7 19 16 16c23 -7 47 -13 71 -13s48 6 71 13c14 4 23 -9 17 -16l-284 -330h167v131c0 8 1 17 8 22z" fill="currentColor"/>
</g>
<g transform="translate(30.0332, 25.8942)">
<text font-family="Roboto Light" font-size="2.2001" text-anchor="start" fill="currentColor">
<tspan>1</tspan>
</text>
</g>
<g transform="translate(14.4540, 25.8942)">
<text font-family="Roboto Slab Light" font-size="2.2001" text-anchor="start" fill="currentColor">
<tspan>Exemplo n.ยบ:</tspan>
</text>
</g>
<g transform="translate(31.3202, 20.3942)">
<rect x="-0.0650" y="-3.0000" width="0.1300" height="2.8139" ry="0.0400" fill="currentColor"/>
</g>
<g transform="translate(33.8023, 20.3942)">
<path transform="scale(0.0040, -0.0040)" d="M218 136c55 0 108 -28 108 -89c0 -71 -55 -121 -102 -149c-35 -21 -75 -34 -116 -34c-55 0 -108 28 -108 89c0 71 55 121 102 149c35 21 75 34 116 34z" fill="currentColor"/>
</g>
<g transform="translate(35.0415, 20.3942)">
<rect x="-0.0650" y="-3.0000" width="0.1300" height="2.8139" ry="0.0400" fill="currentColor"/>
</g>
<g transform="translate(38.6750, 20.3942)">
<path transform="scale(0.0040, -0.0040)" d="M218 136c55 0 108 -28 108 -89c0 -71 -55 -121 -102 -149c-35 -21 -75 -34 -116 -34c-55 0 -108 28 -108 89c0 71 55 121 102 149c35 21 75 34 116 34z" fill="currentColor"/>
</g>
<g transform="translate(38.6271, 25.8942)">
<text font-family="Roboto Light" font-size="2.2001" text-anchor="start" fill="currentColor">
<tspan>2</tspan>
</text>
</g>
<g transform="translate(39.9142, 20.3942)">
<rect x="-0.0650" y="-3.1900" width="0.1300" height="3.0039" ry="0.0400" fill="currentColor"/>
</g>
<g transform="translate(56.1114, 20.3942)">
<path transform="scale(0.0040, -0.0040)" d="M218 136c55 0 108 -28 108 -89c0 -71 -55 -121 -102 -149c-35 -21 -75 -34 -116 -34c-55 0 -108 28 -108 89c0 71 55 121 102 149c35 21 75 34 116 34z" fill="currentColor"/>
</g>
<g transform="translate(57.3506, 20.3942)">
<rect x="-0.0650" y="-3.1900" width="0.1300" height="3.0039" ry="0.0400" fill="currentColor"/>
</g>
<g transform="translate(63.5274, 20.3942)">
<rect x="-0.0650" y="-3.1900" width="0.1300" height="3.0039" ry="0.0400" fill="currentColor"/>
</g>
<g transform="translate(62.2882, 20.3942)">
<path transform="scale(0.0040, -0.0040)" d="M218 136c55 0 108 -28 108 -89c0 -71 -55 -121 -102 -149c-35 -21 -75 -34 -116 -34c-55 0 -108 28 -108 89c0 71 55 121 102 149c35 21 75 34 116 34z" fill="currentColor"/>
</g>
<g transform="translate(59.7754, 20.3942)">
<path transform="scale(0.0040, -0.0040)" d="M218 136c55 0 108 -28 108 -89c0 -71 -55 -121 -102 -149c-35 -21 -75 -34 -116 -34c-55 0 -108 28 -108 89c0 71 55 121 102 149c35 21 75 34 116 34z" fill="currentColor"/>
</g>
<g transform="translate(59.7276, 25.8942)">
<text font-family="Roboto Light" font-size="2.2001" text-anchor="start" fill="currentColor">
<tspan>4</tspan>
</text>
</g>
<g transform="translate(61.0147, 20.3942)">
<rect x="-0.0650" y="-3.1900" width="0.1300" height="3.0039" ry="0.0400" fill="currentColor"/>
</g>
<g transform="translate(66.0402, 20.3942)">
<rect x="-0.0650" y="-3.1900" width="0.1300" height="3.0039" ry="0.0400" fill="currentColor"/>
</g>
<g transform="translate(51.1165, 20.3942)">
<rect x="-0.0650" y="-3.1900" width="0.1300" height="3.0039" ry="0.0400" fill="currentColor"/>
</g>
<g transform="translate(64.8010, 20.3942)">
<path transform="scale(0.0040, -0.0040)" d="M218 136c55 0 108 -28 108 -89c0 -71 -55 -121 -102 -149c-35 -21 -75 -34 -116 -34c-55 0 -108 28 -108 89c0 71 55 121 102 149c35 21 75 34 116 34z" fill="currentColor"/>
</g>
<g transform="translate(53.5986, 20.3942)">
<path transform="scale(0.0040, -0.0040)" d="M218 136c55 0 108 -28 108 -89c0 -71 -55 -121 -102 -149c-35 -21 -75 -34 -116 -34c-55 0 -108 28 -108 89c0 71 55 121 102 149c35 21 75 34 116 34z" fill="currentColor"/>
</g>
<g transform="translate(54.8378, 20.3942)">
<rect x="-0.0650" y="-3.1900" width="0.1300" height="3.0039" ry="0.0400" fill="currentColor"/>
</g>
</svg>
