<svg xmlns="http://www.w3.org/2000/svg" xmlns:xlink="http://www.w3.org/1999/xlink" version="1.2" width="159.20mm" height="22.66mm" viewBox="14.4540 15.4330 90.5936 12.8949">
<style type="text/css">
<![CDATA[
tspan { white-space: pre; }
]]>
</style>
<g transform="translate(14.4540, 21.2330)">
<line stroke-linejoin="round" stroke-linecap="round" stroke-width="0.1000" stroke="currentColor" x1="0.0500" y1="0" x2="90.5436" y2="0"/>
</g>
<g transform="translate(14.4540, 20.2330)">
<line stroke-linejoin="round" stroke-linecap="round" stroke-width="0.1000" stroke="currentColor" x1="0.0500" y1="0" x2="90.5436" y2="0"/>
</g>
<g transform="translate(14.4540, 19.2330)">
<line stroke-linejoin="round" stroke-linecap="round" stroke-width="0.1000" stroke="currentColor" x1="0.0500" y1="0" x2="90.5436" y2="0"/>
</g>
<g transform="translate(14.4540, 18.2330)">
<line stroke-linejoin="round" stroke-linecap="round" stroke-width="0.1000" stroke="currentColor" x1="0.0500" y1="0" x2="90.5436" y2="0"/>
</g>
<g transform="translate(14.4540, 17.2330)">
<line stroke-linejoin="round" stroke-linecap="round" stroke-width="0.1000" stroke="currentColor" x1="0.0500" y1="0" x2="90.5436" y2="0"/>
</g>
<g transform="translate(104.4476, 19.2330)">
<rect x="0.0000" y="-2.0000" width="0.6000" height="4.0000" ry="0.0000" fill="currentColor"/>
</g>
<g transform="translate(103.9576, 19.2330)">
<rect x="0.0000" y="-2.0000" width="0.1900" height="4.0000" ry="0.0000" fill="currentColor"/>
</g>
<g transform="translate(14.4540, 22.2330)">
<rect x="18.8707" y="-0.1000" width="2.9430" height="0.2000" ry="0.1000" fill="currentColor"/>
</g>
<g transform="translate(86.4220, 19.2330)">
<path transform="scale(0.0040, -0.0040)" d="M213 112c-50 0 -69 -43 -69 -88c0 -77 57 -136 134 -136c50 0 69 43 69 88c0 77 -57 136 -134 136zM491 0c0 -43 -34 -75 -72 -96c-53 -29 -114 -40 -174 -40s-120 11 -173 40c-38 21 -72 53 -72 96s34 75 72 96c53 29 113 40 173 40s121 -11 174 -40
c38 -21 72 -53 72 -96z" fill="currentColor"/>
</g>
<g transform="translate(68.1431, 27.8735)">
<text font-family="Roboto Light" font-size="2.2001" text-anchor="start" fill="currentColor">
<tspan>Sol</tspan>
</text>
</g>
<g transform="translate(94.6514, 27.8735)">
<text font-family="Roboto Light" font-size="2.2001" text-anchor="start" fill="currentColor">
<tspan>Dó</tspan>
</text>
</g>
<g transform="translate(95.4026, 25.0735)">
<text font-family="Roboto Light" font-size="2.2001" text-anchor="start" fill="currentColor">
<tspan>C</tspan>
</text>
</g>
<g transform="translate(95.1898, 18.7330)">
<path transform="scale(0.0040, -0.0040)" d="M213 112c-50 0 -69 -43 -69 -88c0 -77 57 -136 134 -136c50 0 69 43 69 88c0 77 -57 136 -134 136zM491 0c0 -43 -34 -75 -72 -96c-53 -29 -114 -40 -174 -40s-120 11 -173 40c-38 21 -72 53 -72 96s34 75 72 96c53 29 113 40 173 40s121 -11 174 -40
c38 -21 72 -53 72 -96z" fill="currentColor"/>
</g>
<g transform="translate(86.3445, 27.8735)">
<text font-family="Roboto Light" font-size="2.2001" text-anchor="start" fill="currentColor">
<tspan>Si</tspan>
</text>
</g>
<g transform="translate(86.6518, 25.0735)">
<text font-family="Roboto Light" font-size="2.2001" text-anchor="start" fill="currentColor">
<tspan>B</tspan>
</text>
</g>
<g transform="translate(77.3548, 27.8735)">
<text font-family="Roboto Light" font-size="2.2001" text-anchor="start" fill="currentColor">
<tspan>Lá</tspan>
</text>
</g>
<g transform="translate(77.8840, 25.0735)">
<text font-family="Roboto Light" font-size="2.2001" text-anchor="start" fill="currentColor">
<tspan>A</tspan>
</text>
</g>
<g transform="translate(77.6542, 19.7330)">
<path transform="scale(0.0040, -0.0040)" d="M213 112c-50 0 -69 -43 -69 -88c0 -77 57 -136 134 -136c50 0 69 43 69 88c0 77 -57 136 -134 136zM491 0c0 -43 -34 -75 -72 -96c-53 -29 -114 -40 -174 -40s-120 11 -173 40c-38 21 -72 53 -72 96s34 75 72 96c53 29 113 40 173 40s121 -11 174 -40
c38 -21 72 -53 72 -96z" fill="currentColor"/>
</g>
<g transform="translate(86.4220, 19.2330)">
<path stroke-width="0.0800" stroke-linejoin="round" stroke-linecap="round" stroke="currentColor" fill="currentColor" d="M9.6197 0.6437C9.6834 0.5983 9.7427 0.5516 9.7972 0.5038L9.7972 0.5038C9.7424 0.5474 9.6828 0.5900 9.6188 0.6315z"/>
</g>
<g transform="translate(86.4220, 19.2330)">
<path stroke-width="0.0800" stroke-linejoin="round" stroke-linecap="round" stroke="currentColor" fill="currentColor" d="M9.0627 0.9614C9.1468 0.9222 9.2272 0.8816 9.3037 0.8399L9.3016 0.8111C9.2249 0.8494 9.1442 0.8866 9.0598 0.9227z"/>
</g>
<g transform="translate(86.4220, 19.2330)">
<path stroke-width="0.0800" stroke-linejoin="round" stroke-linecap="round" stroke="currentColor" fill="currentColor" d="M8.3685 1.2317C8.4689 1.1989 8.5664 1.1648 8.6607 1.1294L8.6568 1.0775C8.5623 1.1102 8.4646 1.1417 8.3641 1.1720z"/>
</g>
<g transform="translate(86.4220, 19.2330)">
<path stroke-width="0.0800" stroke-linejoin="round" stroke-linecap="round" stroke="currentColor" fill="currentColor" d="M7.5680 1.4523C7.6804 1.4263 7.7909 1.3989 7.8990 1.3702L7.8938 1.3006C7.7856 1.3273 7.6750 1.3529 7.5624 1.3772z"/>
</g>
<g transform="translate(86.4220, 19.2330)">
<path stroke-width="0.0800" stroke-linejoin="round" stroke-linecap="round" stroke="currentColor" fill="currentColor" d="M6.6918 1.6209C6.8123 1.6020 6.9316 1.5816 7.0494 1.5599L7.0433 1.4781C6.9254 1.4986 6.8060 1.5179 6.6855 1.5358z"/>
</g>
<g transform="translate(86.4220, 19.2330)">
<path stroke-width="0.0800" stroke-linejoin="round" stroke-linecap="round" stroke="currentColor" fill="currentColor" d="M5.7708 1.7353C5.8952 1.7237 6.0193 1.7107 6.1426 1.6962L6.1361 1.6078C6.0127 1.6218 5.8886 1.6345 5.7642 1.6458z"/>
</g>
<g transform="translate(86.4220, 19.2330)">
<path stroke-width="0.0800" stroke-linejoin="round" stroke-linecap="round" stroke="currentColor" fill="currentColor" d="M4.8359 1.7931C4.9601 1.7892 5.0848 1.7838 5.2096 1.7769L5.2029 1.6874C5.0782 1.6945 4.9535 1.7003 4.8293 1.7047z"/>
</g>
<g transform="translate(86.4220, 19.2330)">
<path stroke-width="0.0800" stroke-linejoin="round" stroke-linecap="round" stroke="currentColor" fill="currentColor" d="M3.9177 1.7920C4.0377 1.7962 4.1589 1.7987 4.2810 1.7996L4.2747 1.7146C4.1526 1.7146 4.0315 1.7132 3.9117 1.7103z"/>
</g>
<g transform="translate(86.4220, 19.2330)">
<path stroke-width="0.0800" stroke-linejoin="round" stroke-linecap="round" stroke="currentColor" fill="currentColor" d="M3.0472 1.7299C3.1587 1.7423 3.2724 1.7531 3.3877 1.7622L3.3822 1.6871C3.2669 1.6797 3.1534 1.6707 3.0420 1.6602z"/>
</g>
<g transform="translate(86.4220, 19.2330)">
<path stroke-width="0.0800" stroke-linejoin="round" stroke-linecap="round" stroke="currentColor" fill="currentColor" d="M2.2551 1.6043C2.3541 1.6254 2.4560 1.6447 2.5606 1.6623L2.5561 1.6026C2.4518 1.5875 2.3501 1.5707 2.2513 1.5524z"/>
</g>
<g transform="translate(86.4220, 19.2330)">
<path stroke-width="0.0800" stroke-linejoin="round" stroke-linecap="round" stroke="currentColor" fill="currentColor" d="M1.5722 1.4130C1.6546 1.4430 1.7408 1.4712 1.8303 1.4976L1.8274 1.4589C1.7381 1.4357 1.6522 1.4108 1.5701 1.3843z"/>
</g>
<g transform="translate(86.4220, 19.2330)">
<path stroke-width="0.0800" stroke-linejoin="round" stroke-linecap="round" stroke="currentColor" fill="currentColor" d="M1.0294 1.1538C1.0910 1.1930 1.1573 1.2303 1.2277 1.2658L1.2268 1.2537C1.1567 1.2221 1.0907 1.1888 1.0294 1.1538z"/>
</g>
<g transform="translate(51.3508, 19.2330)">
<path stroke-width="0.0800" stroke-linejoin="round" stroke-linecap="round" stroke="currentColor" fill="currentColor" d="M9.6061 2.6968C9.6706 2.6476 9.7307 2.5970 9.7860 2.5450L9.7860 2.5450C9.7305 2.5928 9.6702 2.6394 9.6054 2.6846z"/>
</g>
<g transform="translate(51.3508, 19.2330)">
<path stroke-width="0.0800" stroke-linejoin="round" stroke-linecap="round" stroke="currentColor" fill="currentColor" d="M9.0437 3.0376C9.1285 2.9959 9.2096 2.9526 9.2867 2.9079L9.2851 2.8792C9.2077 2.9204 9.1265 2.9603 9.0415 2.9988z"/>
</g>
<g transform="translate(51.3508, 19.2330)">
<path stroke-width="0.0800" stroke-linejoin="round" stroke-linecap="round" stroke="currentColor" fill="currentColor" d="M8.3454 3.3218C8.4462 3.2877 8.5442 3.2521 8.6391 3.2150L8.6361 3.1630C8.5411 3.1974 8.4429 3.2304 8.3420 3.2621z"/>
</g>
<g transform="translate(51.3508, 19.2330)">
<path stroke-width="0.0800" stroke-linejoin="round" stroke-linecap="round" stroke="currentColor" fill="currentColor" d="M7.5418 3.5477C7.6546 3.5216 7.7654 3.4938 7.8739 3.4645L7.8699 3.3948C7.7613 3.4221 7.6504 3.4480 7.5375 3.4725z"/>
</g>
<g transform="translate(51.3508, 19.2330)">
<path stroke-width="0.0800" stroke-linejoin="round" stroke-linecap="round" stroke="currentColor" fill="currentColor" d="M6.6637 3.7136C6.7844 3.6955 6.9039 3.6759 7.0219 3.6545L7.0172 3.5727C6.8991 3.5927 6.7796 3.6113 6.6589 3.6284z"/>
</g>
<g transform="translate(51.3508, 19.2330)">
<path stroke-width="0.0800" stroke-linejoin="round" stroke-linecap="round" stroke="currentColor" fill="currentColor" d="M5.7420 3.8176C5.8664 3.8079 5.9905 3.7965 6.1139 3.7835L6.1089 3.6950C5.9854 3.7075 5.8613 3.7185 5.7369 3.7280z"/>
</g>
<g transform="translate(51.3508, 19.2330)">
<path stroke-width="0.0800" stroke-linejoin="round" stroke-linecap="round" stroke="currentColor" fill="currentColor" d="M4.8073 3.8580C4.9314 3.8569 5.0560 3.8541 5.1808 3.8496L5.1757 3.7600C5.0509 3.7647 4.9264 3.7679 4.8023 3.7695z"/>
</g>
<g transform="translate(51.3508, 19.2330)">
<path stroke-width="0.0800" stroke-linejoin="round" stroke-linecap="round" stroke="currentColor" fill="currentColor" d="M3.8906 3.8331C4.0103 3.8409 4.1312 3.8468 4.2532 3.8510L4.2483 3.7658C4.1264 3.7626 4.0055 3.7578 3.8859 3.7513z"/>
</g>
<g transform="translate(51.3508, 19.2330)">
<path stroke-width="0.0800" stroke-linejoin="round" stroke-linecap="round" stroke="currentColor" fill="currentColor" d="M3.0225 3.7411C3.1337 3.7579 3.2469 3.7729 3.3619 3.7861L3.3576 3.7109C3.2427 3.6994 3.1296 3.6862 3.0185 3.6714z"/>
</g>
<g transform="translate(51.3508, 19.2330)">
<path stroke-width="0.0800" stroke-linejoin="round" stroke-linecap="round" stroke="currentColor" fill="currentColor" d="M2.2339 3.5803C2.3324 3.6064 2.4338 3.6306 2.5379 3.6530L2.5344 3.5932C2.4306 3.5733 2.3293 3.5517 2.2310 3.5283z"/>
</g>
<g transform="translate(51.3508, 19.2330)">
<path stroke-width="0.0800" stroke-linejoin="round" stroke-linecap="round" stroke="currentColor" fill="currentColor" d="M1.5556 3.3488C1.6373 3.3845 1.7228 3.4182 1.8117 3.4500L1.8095 3.4113C1.7208 3.3826 1.6355 3.3522 1.5539 3.3201z"/>
</g>
<g transform="translate(51.3508, 19.2330)">
<path stroke-width="0.0800" stroke-linejoin="round" stroke-linecap="round" stroke="currentColor" fill="currentColor" d="M1.0182 3.0450C1.0791 3.0904 1.1446 3.1338 1.2143 3.1753L1.2136 3.1632C1.1441 3.1256 1.0789 3.0862 1.0182 3.0450z"/>
</g>
<g transform="translate(33.2768, 27.8735)">
<text font-family="Roboto Light" font-size="2.2001" text-anchor="start" fill="currentColor">
<tspan>Dó</tspan>
</text>
</g>
<g transform="translate(42.5830, 21.7330)">
<path transform="scale(0.0040, -0.0040)" d="M213 112c-50 0 -69 -43 -69 -88c0 -77 57 -136 134 -136c50 0 69 43 69 88c0 77 -57 136 -134 136zM491 0c0 -43 -34 -75 -72 -96c-53 -29 -114 -40 -174 -40s-120 11 -173 40c-38 21 -72 53 -72 96s34 75 72 96c53 29 113 40 173 40s121 -11 174 -40
c38 -21 72 -53 72 -96z" fill="currentColor"/>
</g>
<g transform="translate(20.2925, 27.8735)">
<text font-family="Roboto Slab Light" font-size="2.2001" text-anchor="start" fill="currentColor">
<tspan>Português:</tspan>
</text>
</g>
<g transform="translate(68.8864, 20.2330)">
<path transform="scale(0.0040, -0.0040)" d="M213 112c-50 0 -69 -43 -69 -88c0 -77 57 -136 134 -136c50 0 69 43 69 88c0 77 -57 136 -134 136zM491 0c0 -43 -34 -75 -72 -96c-53 -29 -114 -40 -174 -40s-120 11 -173 40c-38 21 -72 53 -72 96s34 75 72 96c53 29 113 40 173 40s121 -11 174 -40
c38 -21 72 -53 72 -96z" fill="currentColor"/>
</g>
<g transform="translate(14.4540, 25.0735)">
<text font-family="Roboto Slab Light" font-size="2.2001" text-anchor="start" fill="currentColor">
<tspan>Anglo-saxónico:</tspan>
</text>
</g>
<g transform="translate(34.0280, 25.0735)">
<text font-family="Roboto Light" font-size="2.2001" text-anchor="start" fill="currentColor">
<tspan>C</tspan>
</text>
</g>
<g transform="translate(15.2540, 20.2330)">
<path transform="scale(0.0040, -0.0040)" d="M266 -635h-6c-108 0 -195 88 -195 197c0 58 53 103 112 103c54 0 95 -47 95 -103c0 -52 -43 -95 -95 -95c-11 0 -21 2 -31 6c26 -39 68 -65 117 -65h4zM461 -203c68 24 113 95 113 164c0 90 -66 179 -173 190c24 -116 46 -231 60 -354zM74 28c0 -135 129 -247 264 -247
c28 0 55 2 82 6c-14 127 -37 245 -63 364c-79 -8 -124 -61 -124 -119c0 -44 25 -91 81 -123c5 -5 7 -10 7 -15c0 -11 -10 -22 -22 -22c-3 0 -6 1 -9 2c-80 43 -117 115 -117 185c0 88 58 174 160 197c-14 58 -29 117 -46 175c-107 -121 -213 -243 -213 -403zM335 -262
c-188 0 -333 172 -333 374c0 177 131 306 248 441c-19 62 -37 125 -45 190c-6 52 -7 104 -7 156c0 115 55 224 149 292c6 5 14 5 20 0c71 -84 133 -245 133 -358c0 -143 -86 -255 -180 -364c21 -68 39 -138 56 -207c4 0 9 1 13 1c155 0 256 -128 256 -261
c0 -76 -33 -154 -107 -210c-22 -17 -47 -28 -73 -36c3 -35 5 -70 5 -105c0 -19 -1 -39 -2 -58c-7 -119 -88 -225 -202 -228l1 43c93 2 153 92 159 191c1 18 2 37 2 55c0 31 -1 61 -4 92c-29 -5 -58 -8 -89 -8zM428 916c0 55 -4 79 -20 129c-99 -48 -162 -149 -162 -259
c0 -74 18 -133 36 -194c80 97 146 198 146 324z" fill="currentColor"/>
</g>
<g transform="translate(33.8152, 22.2330)">
<path transform="scale(0.0040, -0.0040)" d="M213 112c-50 0 -69 -43 -69 -88c0 -77 57 -136 134 -136c50 0 69 43 69 88c0 77 -57 136 -134 136zM491 0c0 -43 -34 -75 -72 -96c-53 -29 -114 -40 -174 -40s-120 11 -173 40c-38 21 -72 53 -72 96s34 75 72 96c53 29 113 40 173 40s121 -11 174 -40
c38 -21 72 -53 72 -96z" fill="currentColor"/>
</g>
<g transform="translate(42.1470, 27.8735)">
<text font-family="Roboto Light" font-size="2.2001" text-anchor="start" fill="currentColor">
<tspan>Ré</tspan>
</text>
</g>
<g transform="translate(69.0138, 25.0735)">
<text font-family="Roboto Light" font-size="2.2001" text-anchor="start" fill="currentColor">
<tspan>G</tspan>
</text>
</g>
<g transform="translate(59.8021, 27.8735)">
<text font-family="Roboto Light" font-size="2.2001" text-anchor="start" fill="currentColor">
<tspan>Fá</tspan>
</text>
</g>
<g transform="translate(60.4679, 25.0735)">
<text font-family="Roboto Light" font-size="2.2001" text-anchor="start" fill="currentColor">
<tspan>F</tspan>
</text>
</g>
<g transform="translate(60.1186, 20.7330)">
<path transform="scale(0.0040, -0.0040)" d="M213 112c-50 0 -69 -43 -69 -88c0 -77 57 -136 134 -136c50 0 69 43 69 88c0 77 -57 136 -134 136zM491 0c0 -43 -34 -75 -72 -96c-53 -29 -114 -40 -174 -40s-120 11 -173 40c-38 21 -72 53 -72 96s34 75 72 96c53 29 113 40 173 40s121 -11 174 -40
c38 -21 72 -53 72 -96z" fill="currentColor"/>
</g>
<g transform="translate(42.7104, 25.0735)">
<text font-family="Roboto Light" font-size="2.2001" text-anchor="start" fill="currentColor">
<tspan>D</tspan>
</text>
</g>
<g transform="translate(51.1026, 27.8735)">
<text font-family="Roboto Light" font-size="2.2001" text-anchor="start" fill="currentColor">
<tspan>Mi</tspan>
</text>
</g>
<g transform="translate(51.3508, 21.2330)">
<path transform="scale(0.0040, -0.0040)" d="M213 112c-50 0 -69 -43 -69 -88c0 -77 57 -136 134 -136c50 0 69 43 69 88c0 77 -57 136 -134 136zM491 0c0 -43 -34 -75 -72 -96c-53 -29 -114 -40 -174 -40s-120 11 -173 40c-38 21 -72 53 -72 96s34 75 72 96c53 29 113 40 173 40s121 -11 174 -40
c38 -21 72 -53 72 -96z" fill="currentColor"/>
</g>
<g transform="translate(51.6318, 25.0735)">
<text font-family="Roboto Light" font-size="2.2001" text-anchor="start" fill="currentColor">
<tspan>E</tspan>
</text>
</g>
</svg>
