<svg xmlns="http://www.w3.org/2000/svg" xmlns:xlink="http://www.w3.org/1999/xlink" version="1.2" width="159.20mm" height="19.18mm" viewBox="14.4540 15.4330 90.5936 10.9121">
<style type="text/css">
<![CDATA[
tspan { white-space: pre; }
]]>
</style>
<g transform="translate(14.4540, 21.2330)">
<line stroke-linejoin="round" stroke-linecap="round" stroke-width="0.1000" stroke="currentColor" x1="0.0500" y1="0" x2="90.5436" y2="0"/>
</g>
<g transform="translate(14.4540, 20.2330)">
<line stroke-linejoin="round" stroke-linecap="round" stroke-width="0.1000" stroke="currentColor" x1="0.0500" y1="0" x2="90.5436" y2="0"/>
</g>
<g transform="translate(14.4540, 19.2330)">
<line stroke-linejoin="round" stroke-linecap="round" stroke-width="0.1000" stroke="currentColor" x1="0.0500" y1="0" x2="90.5436" y2="0"/>
</g>
<g transform="translate(14.4540, 18.2330)">
<line stroke-linejoin="round" stroke-linecap="round" stroke-width="0.1000" stroke="currentColor" x1="0.0500" y1="0" x2="90.5436" y2="0"/>
</g>
<g transform="translate(14.4540, 17.2330)">
<line stroke-linejoin="round" stroke-linecap="round" stroke-width="0.1000" stroke="currentColor" x1="0.0500" y1="0" x2="90.5436" y2="0"/>
</g>
<g transform="translate(14.4540, 22.2330)">
<rect x="31.0415" y="-0.1000" width="2.9430" height="0.2000" ry="0.1000" fill="currentColor"/>
</g>
<g transform="translate(14.4540, 22.2330)">
<rect x="21.3796" y="-0.1000" width="2.9430" height="0.2000" ry="0.1000" fill="currentColor"/>
</g>
<g transform="translate(14.4540, 22.2330)">
<rect x="11.7177" y="-0.1000" width="2.9430" height="0.2000" ry="0.1000" fill="currentColor"/>
</g>
<g transform="translate(14.4540, 23.2330)">
<rect x="11.7177" y="-0.1000" width="2.9430" height="0.2000" ry="0.1000" fill="currentColor"/>
</g>
<g transform="translate(104.4476, 19.2330)">
<rect x="0.0000" y="-2.0000" width="0.6000" height="4.0000" ry="0.0000" fill="currentColor"/>
</g>
<g transform="translate(103.9576, 19.2330)">
<rect x="0.0000" y="-2.0000" width="0.1900" height="4.0000" ry="0.0000" fill="currentColor"/>
</g>
<g transform="translate(65.3099, 21.2330)">
<path transform="scale(0.0040, -0.0040)" d="M213 112c-50 0 -69 -43 -69 -88c0 -77 57 -136 134 -136c50 0 69 43 69 88c0 77 -57 136 -134 136zM491 0c0 -43 -34 -75 -72 -96c-53 -29 -114 -40 -174 -40s-120 11 -173 40c-38 21 -72 53 -72 96s34 75 72 96c53 29 113 40 173 40s121 -11 174 -40
c38 -21 72 -53 72 -96z" fill="currentColor"/>
</g>
<g transform="translate(94.5255, 26.3118)">
<text font-family="Roboto Light" font-size="2.2001" text-anchor="start" fill="currentColor">
<tspan>A</tspan>
</text>
</g>
<g transform="translate(94.2956, 19.7330)">
<path transform="scale(0.0040, -0.0040)" d="M213 112c-50 0 -69 -43 -69 -88c0 -77 57 -136 134 -136c50 0 69 43 69 88c0 77 -57 136 -134 136zM491 0c0 -43 -34 -75 -72 -96c-53 -29 -114 -40 -174 -40s-120 11 -173 40c-38 21 -72 53 -72 96s34 75 72 96c53 29 113 40 173 40s121 -11 174 -40
c38 -21 72 -53 72 -96z" fill="currentColor"/>
</g>
<g transform="translate(84.7611, 26.3118)">
<text font-family="Roboto Light" font-size="2.2001" text-anchor="start" fill="currentColor">
<tspan>G</tspan>
</text>
</g>
<g transform="translate(84.6337, 20.2330)">
<path transform="scale(0.0040, -0.0040)" d="M213 112c-50 0 -69 -43 -69 -88c0 -77 57 -136 134 -136c50 0 69 43 69 88c0 77 -57 136 -134 136zM491 0c0 -43 -34 -75 -72 -96c-53 -29 -114 -40 -174 -40s-120 11 -173 40c-38 21 -72 53 -72 96s34 75 72 96c53 29 113 40 173 40s121 -11 174 -40
c38 -21 72 -53 72 -96z" fill="currentColor"/>
</g>
<g transform="translate(75.3211, 26.3118)">
<text font-family="Roboto Light" font-size="2.2001" text-anchor="start" fill="currentColor">
<tspan>F</tspan>
</text>
</g>
<g transform="translate(74.9718, 20.7330)">
<path transform="scale(0.0040, -0.0040)" d="M213 112c-50 0 -69 -43 -69 -88c0 -77 57 -136 134 -136c50 0 69 43 69 88c0 77 -57 136 -134 136zM491 0c0 -43 -34 -75 -72 -96c-53 -29 -114 -40 -174 -40s-120 11 -173 40c-38 21 -72 53 -72 96s34 75 72 96c53 29 113 40 173 40s121 -11 174 -40
c38 -21 72 -53 72 -96z" fill="currentColor"/>
</g>
<g transform="translate(65.5909, 26.3118)">
<text font-family="Roboto Light" font-size="2.2001" text-anchor="start" fill="currentColor">
<tspan>E</tspan>
</text>
</g>
<g transform="translate(65.3099, 19.2330)">
<path stroke-width="0.0800" stroke-linejoin="round" stroke-linecap="round" stroke="currentColor" fill="currentColor" d="M10.5008 2.6894C10.5639 2.6426 10.6227 2.5944 10.6767 2.5450L10.6767 2.5450C10.6225 2.5905 10.5635 2.6350 10.5002 2.6782z"/>
</g>
<g transform="translate(65.3099, 19.2330)">
<path stroke-width="0.0800" stroke-linejoin="round" stroke-linecap="round" stroke="currentColor" fill="currentColor" d="M9.9502 3.0168C10.0333 2.9764 10.1128 2.9347 10.1883 2.8917L10.1870 2.8650C10.1112 2.9048 10.0316 2.9434 9.9483 2.9808z"/>
</g>
<g transform="translate(65.3099, 19.2330)">
<path stroke-width="0.0800" stroke-linejoin="round" stroke-linecap="round" stroke="currentColor" fill="currentColor" d="M9.2635 3.2948C9.3629 3.2611 9.4594 3.2260 9.5527 3.1896L9.5502 3.1409C9.4567 3.1747 9.3601 3.2073 9.2606 3.2387z"/>
</g>
<g transform="translate(65.3099, 19.2330)">
<path stroke-width="0.0800" stroke-linejoin="round" stroke-linecap="round" stroke="currentColor" fill="currentColor" d="M8.4683 3.5220C8.5803 3.4951 8.6902 3.4669 8.7976 3.4373L8.7942 3.3713C8.6867 3.3990 8.5767 3.4253 8.4646 3.4504z"/>
</g>
<g transform="translate(65.3099, 19.2330)">
<path stroke-width="0.0800" stroke-linejoin="round" stroke-linecap="round" stroke="currentColor" fill="currentColor" d="M7.5926 3.6970C7.7135 3.6772 7.8330 3.6560 7.9508 3.6334L7.9467 3.5548C7.8289 3.5761 7.7093 3.5960 7.5883 3.6147z"/>
</g>
<g transform="translate(65.3099, 19.2330)">
<path stroke-width="0.0800" stroke-linejoin="round" stroke-linecap="round" stroke="currentColor" fill="currentColor" d="M6.6640 3.8184C6.7901 3.8058 6.9155 3.7918 7.0400 3.7763L7.0355 3.6898C6.9110 3.7045 6.7856 3.7179 6.6594 3.7300z"/>
</g>
<g transform="translate(65.3099, 19.2330)">
<path stroke-width="0.0800" stroke-linejoin="round" stroke-linecap="round" stroke="currentColor" fill="currentColor" d="M5.7103 3.8846C5.8379 3.8795 5.9656 3.8729 6.0930 3.8648L6.0884 3.7750C5.9609 3.7830 5.8332 3.7896 5.7056 3.7948z"/>
</g>
<g transform="translate(65.3099, 19.2330)">
<path stroke-width="0.0800" stroke-linejoin="round" stroke-linecap="round" stroke="currentColor" fill="currentColor" d="M4.7592 3.8944C4.8846 3.8969 5.0108 3.8979 5.1375 3.8973L5.1330 3.8090C5.0063 3.8100 4.8801 3.8096 4.7547 3.8079z"/>
</g>
<g transform="translate(65.3099, 19.2330)">
<path stroke-width="0.0800" stroke-linejoin="round" stroke-linecap="round" stroke="currentColor" fill="currentColor" d="M3.8385 3.8462C3.9580 3.8565 4.0791 3.8653 4.2014 3.8725L4.1971 3.7902C4.0749 3.7841 3.9539 3.7766 3.8344 3.7676z"/>
</g>
<g transform="translate(65.3099, 19.2330)">
<path stroke-width="0.0800" stroke-linejoin="round" stroke-linecap="round" stroke="currentColor" fill="currentColor" d="M2.9760 3.7386C3.0859 3.7569 3.1981 3.7737 3.3122 3.7888L3.3085 3.7173C3.1944 3.7039 3.0824 3.6890 2.9726 3.6726z"/>
</g>
<g transform="translate(65.3099, 19.2330)">
<path stroke-width="0.0800" stroke-linejoin="round" stroke-linecap="round" stroke="currentColor" fill="currentColor" d="M2.1993 3.5701C2.2959 3.5967 2.3956 3.6216 2.4979 3.6449L2.4950 3.5888C2.3928 3.5679 2.2933 3.5454 2.1968 3.5215z"/>
</g>
<g transform="translate(65.3099, 19.2330)">
<path stroke-width="0.0800" stroke-linejoin="round" stroke-linecap="round" stroke="currentColor" fill="currentColor" d="M1.5364 3.3394C1.6160 3.3744 1.6993 3.4077 1.7861 3.4393L1.7843 3.4032C1.6976 3.3746 1.6144 3.3445 1.5350 3.3128z"/>
</g>
<g transform="translate(65.3099, 19.2330)">
<path stroke-width="0.0800" stroke-linejoin="round" stroke-linecap="round" stroke="currentColor" fill="currentColor" d="M1.0148 3.0450C1.0737 3.0886 1.1371 3.1304 1.2047 3.1705L1.2041 3.1593C1.1367 3.1228 1.0735 3.0847 1.0148 3.0450z"/>
</g>
<g transform="translate(36.3241, 19.2330)">
<path stroke-width="0.0800" stroke-linejoin="round" stroke-linecap="round" stroke="currentColor" fill="currentColor" d="M10.5008 4.1894C10.5639 4.1426 10.6227 4.0944 10.6767 4.0450L10.6767 4.0450C10.6225 4.0905 10.5635 4.1350 10.5002 4.1782z"/>
</g>
<g transform="translate(36.3241, 19.2330)">
<path stroke-width="0.0800" stroke-linejoin="round" stroke-linecap="round" stroke="currentColor" fill="currentColor" d="M9.9502 4.5168C10.0333 4.4764 10.1128 4.4347 10.1883 4.3917L10.1870 4.3650C10.1112 4.4048 10.0316 4.4434 9.9483 4.4808z"/>
</g>
<g transform="translate(36.3241, 19.2330)">
<path stroke-width="0.0800" stroke-linejoin="round" stroke-linecap="round" stroke="currentColor" fill="currentColor" d="M9.2635 4.7948C9.3629 4.7611 9.4594 4.7260 9.5527 4.6896L9.5502 4.6409C9.4567 4.6747 9.3601 4.7073 9.2606 4.7387z"/>
</g>
<g transform="translate(36.3241, 19.2330)">
<path stroke-width="0.0800" stroke-linejoin="round" stroke-linecap="round" stroke="currentColor" fill="currentColor" d="M8.4683 5.0220C8.5803 4.9951 8.6902 4.9669 8.7976 4.9373L8.7942 4.8713C8.6867 4.8990 8.5767 4.9253 8.4646 4.9504z"/>
</g>
<g transform="translate(36.3241, 19.2330)">
<path stroke-width="0.0800" stroke-linejoin="round" stroke-linecap="round" stroke="currentColor" fill="currentColor" d="M7.5926 5.1970C7.7135 5.1772 7.8330 5.1560 7.9508 5.1334L7.9467 5.0548C7.8289 5.0761 7.7093 5.0960 7.5883 5.1147z"/>
</g>
<g transform="translate(36.3241, 19.2330)">
<path stroke-width="0.0800" stroke-linejoin="round" stroke-linecap="round" stroke="currentColor" fill="currentColor" d="M6.6640 5.3184C6.7901 5.3058 6.9155 5.2918 7.0400 5.2763L7.0355 5.1898C6.9110 5.2045 6.7856 5.2179 6.6594 5.2300z"/>
</g>
<g transform="translate(36.3241, 19.2330)">
<path stroke-width="0.0800" stroke-linejoin="round" stroke-linecap="round" stroke="currentColor" fill="currentColor" d="M5.7103 5.3846C5.8379 5.3795 5.9656 5.3729 6.0930 5.3648L6.0884 5.2750C5.9609 5.2830 5.8332 5.2896 5.7056 5.2948z"/>
</g>
<g transform="translate(36.3241, 19.2330)">
<path stroke-width="0.0800" stroke-linejoin="round" stroke-linecap="round" stroke="currentColor" fill="currentColor" d="M4.7592 5.3944C4.8846 5.3969 5.0108 5.3979 5.1375 5.3973L5.1330 5.3090C5.0063 5.3100 4.8801 5.3096 4.7547 5.3079z"/>
</g>
<g transform="translate(36.3241, 19.2330)">
<path stroke-width="0.0800" stroke-linejoin="round" stroke-linecap="round" stroke="currentColor" fill="currentColor" d="M3.8385 5.3462C3.9580 5.3565 4.0791 5.3653 4.2014 5.3725L4.1971 5.2902C4.0749 5.2841 3.9539 5.2766 3.8344 5.2676z"/>
</g>
<g transform="translate(36.3241, 19.2330)">
<path stroke-width="0.0800" stroke-linejoin="round" stroke-linecap="round" stroke="currentColor" fill="currentColor" d="M2.9760 5.2386C3.0859 5.2569 3.1981 5.2737 3.3122 5.2888L3.3085 5.2173C3.1944 5.2039 3.0824 5.1890 2.9726 5.1726z"/>
</g>
<g transform="translate(36.3241, 19.2330)">
<path stroke-width="0.0800" stroke-linejoin="round" stroke-linecap="round" stroke="currentColor" fill="currentColor" d="M2.1993 5.0701C2.2959 5.0967 2.3956 5.1216 2.4979 5.1449L2.4950 5.0888C2.3928 5.0679 2.2933 5.0454 2.1968 5.0215z"/>
</g>
<g transform="translate(36.3241, 19.2330)">
<path stroke-width="0.0800" stroke-linejoin="round" stroke-linecap="round" stroke="currentColor" fill="currentColor" d="M1.5364 4.8394C1.6160 4.8744 1.6993 4.9077 1.7861 4.9393L1.7843 4.9032C1.6976 4.8746 1.6144 4.8445 1.5350 4.8128z"/>
</g>
<g transform="translate(36.3241, 19.2330)">
<path stroke-width="0.0800" stroke-linejoin="round" stroke-linecap="round" stroke="currentColor" fill="currentColor" d="M1.0148 4.5450C1.0737 4.5886 1.1371 4.6304 1.2047 4.6705L1.2041 4.6593C1.1367 4.6228 1.0735 4.5847 1.0148 4.5450z"/>
</g>
<g transform="translate(14.4540, 26.3118)">
<text font-family="Roboto Slab Light" font-size="2.2001" text-anchor="start" fill="currentColor">
<tspan>Lá menor:</tspan>
</text>
</g>
<g transform="translate(26.8920, 26.3118)">
<text font-family="Roboto Light" font-size="2.2001" text-anchor="start" fill="currentColor">
<tspan>A</tspan>
</text>
</g>
<g transform="translate(15.2540, 20.2330)">
<path transform="scale(0.0040, -0.0040)" d="M266 -635h-6c-108 0 -195 88 -195 197c0 58 53 103 112 103c54 0 95 -47 95 -103c0 -52 -43 -95 -95 -95c-11 0 -21 2 -31 6c26 -39 68 -65 117 -65h4zM461 -203c68 24 113 95 113 164c0 90 -66 179 -173 190c24 -116 46 -231 60 -354zM74 28c0 -135 129 -247 264 -247
c28 0 55 2 82 6c-14 127 -37 245 -63 364c-79 -8 -124 -61 -124 -119c0 -44 25 -91 81 -123c5 -5 7 -10 7 -15c0 -11 -10 -22 -22 -22c-3 0 -6 1 -9 2c-80 43 -117 115 -117 185c0 88 58 174 160 197c-14 58 -29 117 -46 175c-107 -121 -213 -243 -213 -403zM335 -262
c-188 0 -333 172 -333 374c0 177 131 306 248 441c-19 62 -37 125 -45 190c-6 52 -7 104 -7 156c0 115 55 224 149 292c6 5 14 5 20 0c71 -84 133 -245 133 -358c0 -143 -86 -255 -180 -364c21 -68 39 -138 56 -207c4 0 9 1 13 1c155 0 256 -128 256 -261
c0 -76 -33 -154 -107 -210c-22 -17 -47 -28 -73 -36c3 -35 5 -70 5 -105c0 -19 -1 -39 -2 -58c-7 -119 -88 -225 -202 -228l1 43c93 2 153 92 159 191c1 18 2 37 2 55c0 31 -1 61 -4 92c-29 -5 -58 -8 -89 -8zM428 916c0 55 -4 79 -20 129c-99 -48 -162 -149 -162 -259
c0 -74 18 -133 36 -194c80 97 146 198 146 324z" fill="currentColor"/>
</g>
<g transform="translate(26.6622, 23.2330)">
<path transform="scale(0.0040, -0.0040)" d="M213 112c-50 0 -69 -43 -69 -88c0 -77 57 -136 134 -136c50 0 69 43 69 88c0 77 -57 136 -134 136zM491 0c0 -43 -34 -75 -72 -96c-53 -29 -114 -40 -174 -40s-120 11 -173 40c-38 21 -72 53 -72 96s34 75 72 96c53 29 113 40 173 40s121 -11 174 -40
c38 -21 72 -53 72 -96z" fill="currentColor"/>
</g>
<g transform="translate(55.7754, 26.3118)">
<text font-family="Roboto Light" font-size="2.2001" text-anchor="start" fill="currentColor">
<tspan>D</tspan>
</text>
</g>
<g transform="translate(55.6479, 21.7330)">
<path transform="scale(0.0040, -0.0040)" d="M213 112c-50 0 -69 -43 -69 -88c0 -77 57 -136 134 -136c50 0 69 43 69 88c0 77 -57 136 -134 136zM491 0c0 -43 -34 -75 -72 -96c-53 -29 -114 -40 -174 -40s-120 11 -173 40c-38 21 -72 53 -72 96s34 75 72 96c53 29 113 40 173 40s121 -11 174 -40
c38 -21 72 -53 72 -96z" fill="currentColor"/>
</g>
<g transform="translate(46.1988, 26.3118)">
<text font-family="Roboto Light" font-size="2.2001" text-anchor="start" fill="currentColor">
<tspan>C</tspan>
</text>
</g>
<g transform="translate(45.9860, 22.2330)">
<path transform="scale(0.0040, -0.0040)" d="M213 112c-50 0 -69 -43 -69 -88c0 -77 57 -136 134 -136c50 0 69 43 69 88c0 77 -57 136 -134 136zM491 0c0 -43 -34 -75 -72 -96c-53 -29 -114 -40 -174 -40s-120 11 -173 40c-38 21 -72 53 -72 96s34 75 72 96c53 29 113 40 173 40s121 -11 174 -40
c38 -21 72 -53 72 -96z" fill="currentColor"/>
</g>
<g transform="translate(36.5539, 26.3118)">
<text font-family="Roboto Light" font-size="2.2001" text-anchor="start" fill="currentColor">
<tspan>B</tspan>
</text>
</g>
<g transform="translate(36.3241, 22.7330)">
<path transform="scale(0.0040, -0.0040)" d="M213 112c-50 0 -69 -43 -69 -88c0 -77 57 -136 134 -136c50 0 69 43 69 88c0 77 -57 136 -134 136zM491 0c0 -43 -34 -75 -72 -96c-53 -29 -114 -40 -174 -40s-120 11 -173 40c-38 21 -72 53 -72 96s34 75 72 96c53 29 113 40 173 40s121 -11 174 -40
c38 -21 72 -53 72 -96z" fill="currentColor"/>
</g>
</svg>
