<svg xmlns="http://www.w3.org/2000/svg" xmlns:xlink="http://www.w3.org/1999/xlink" version="1.2" width="159.20mm" height="21.63mm" viewBox="14.4540 15.4330 90.5936 12.3069">
<style type="text/css">
<![CDATA[
tspan { white-space: pre; }
]]>
</style>
<g transform="translate(14.4540, 21.2330)">
<line stroke-linejoin="round" stroke-linecap="round" stroke-width="0.1000" stroke="currentColor" x1="0.0500" y1="0" x2="90.5436" y2="0"/>
</g>
<g transform="translate(14.4540, 20.2330)">
<line stroke-linejoin="round" stroke-linecap="round" stroke-width="0.1000" stroke="currentColor" x1="0.0500" y1="0" x2="90.5436" y2="0"/>
</g>
<g transform="translate(14.4540, 19.2330)">
<line stroke-linejoin="round" stroke-linecap="round" stroke-width="0.1000" stroke="currentColor" x1="0.0500" y1="0" x2="90.5436" y2="0"/>
</g>
<g transform="translate(14.4540, 18.2330)">
<line stroke-linejoin="round" stroke-linecap="round" stroke-width="0.1000" stroke="currentColor" x1="0.0500" y1="0" x2="90.5436" y2="0"/>
</g>
<g transform="translate(14.4540, 17.2330)">
<line stroke-linejoin="round" stroke-linecap="round" stroke-width="0.1000" stroke="currentColor" x1="0.0500" y1="0" x2="90.5436" y2="0"/>
</g>
<g transform="translate(104.4476, 19.2330)">
<rect x="0.0000" y="-2.0000" width="0.6000" height="4.0000" ry="0.0000" fill="currentColor"/>
</g>
<g transform="translate(103.9576, 19.2330)">
<rect x="0.0000" y="-2.0000" width="0.1900" height="4.0000" ry="0.0000" fill="currentColor"/>
</g>
<g transform="translate(14.4540, 22.2330)">
<rect x="6.6132" y="-0.1000" width="2.9430" height="0.2000" ry="0.1000" fill="currentColor"/>
</g>
<g transform="translate(83.3576, 19.2330)">
<path transform="scale(0.0040, -0.0040)" d="M213 112c-50 0 -69 -43 -69 -88c0 -77 57 -136 134 -136c50 0 69 43 69 88c0 77 -57 136 -134 136zM491 0c0 -43 -34 -75 -72 -96c-53 -29 -114 -40 -174 -40s-120 11 -173 40c-38 21 -72 53 -72 96s34 75 72 96c53 29 113 40 173 40s121 -11 174 -40
c38 -21 72 -53 72 -96z" fill="currentColor"/>
</g>
<g transform="translate(63.4887, 25.9733)">
<line stroke-linejoin="round" stroke-linecap="round" stroke-width="0.1000" stroke="currentColor" x1="0" y1="0" x2="0.2500" y2="-0.2500"/>
</g>
<g transform="translate(63.7387, 25.7233)">
<line stroke-linejoin="round" stroke-linecap="round" stroke-width="0.1000" stroke="currentColor" x1="0" y1="0" x2="0.2500" y2="0.2500"/>
</g>
<g transform="translate(63.0387, 27.6733)">
<text font-family="Roboto Light" font-size="2.2001" text-anchor="start" fill="currentColor">
<tspan>5</tspan>
</text>
</g>
<g transform="translate(94.3886, 26.0066)">
<line stroke-linejoin="round" stroke-linecap="round" stroke-width="0.1000" stroke="currentColor" x1="0" y1="0" x2="0.2500" y2="-0.2500"/>
</g>
<g transform="translate(94.6386, 25.7566)">
<line stroke-linejoin="round" stroke-linecap="round" stroke-width="0.1000" stroke="currentColor" x1="0" y1="0" x2="0.2500" y2="0.2500"/>
</g>
<g transform="translate(93.9387, 27.7066)">
<text font-family="Roboto Light" font-size="2.2001" text-anchor="start" fill="currentColor">
<tspan>1</tspan>
</text>
</g>
<g transform="translate(93.8704, 24.9066)">
<text font-family="Roboto Light" font-size="2.2001" text-anchor="start" fill="currentColor">
<tspan>C</tspan>
</text>
</g>
<g transform="translate(93.6576, 18.7330)">
<path transform="scale(0.0040, -0.0040)" d="M213 112c-50 0 -69 -43 -69 -88c0 -77 57 -136 134 -136c50 0 69 43 69 88c0 77 -57 136 -134 136zM491 0c0 -43 -34 -75 -72 -96c-53 -29 -114 -40 -174 -40s-120 11 -173 40c-38 21 -72 53 -72 96s34 75 72 96c53 29 113 40 173 40s121 -11 174 -40
c38 -21 72 -53 72 -96z" fill="currentColor"/>
</g>
<g transform="translate(84.0886, 26.0066)">
<line stroke-linejoin="round" stroke-linecap="round" stroke-width="0.1000" stroke="currentColor" x1="0" y1="0" x2="0.2500" y2="-0.2500"/>
</g>
<g transform="translate(84.3386, 25.7566)">
<line stroke-linejoin="round" stroke-linecap="round" stroke-width="0.1000" stroke="currentColor" x1="0" y1="0" x2="0.2500" y2="0.2500"/>
</g>
<g transform="translate(83.6387, 27.7066)">
<text font-family="Roboto Light" font-size="2.2001" text-anchor="start" fill="currentColor">
<tspan>7</tspan>
</text>
</g>
<g transform="translate(83.5875, 24.9066)">
<text font-family="Roboto Light" font-size="2.2001" text-anchor="start" fill="currentColor">
<tspan>B</tspan>
</text>
</g>
<g transform="translate(73.7886, 25.9733)">
<line stroke-linejoin="round" stroke-linecap="round" stroke-width="0.1000" stroke="currentColor" x1="0" y1="0" x2="0.2500" y2="-0.2500"/>
</g>
<g transform="translate(74.0386, 25.7233)">
<line stroke-linejoin="round" stroke-linecap="round" stroke-width="0.1000" stroke="currentColor" x1="0" y1="0" x2="0.2500" y2="0.2500"/>
</g>
<g transform="translate(73.3387, 27.6733)">
<text font-family="Roboto Light" font-size="2.2001" text-anchor="start" fill="currentColor">
<tspan>6</tspan>
</text>
</g>
<g transform="translate(73.2875, 24.9066)">
<text font-family="Roboto Light" font-size="2.2001" text-anchor="start" fill="currentColor">
<tspan>A</tspan>
</text>
</g>
<g transform="translate(73.0576, 19.7330)">
<path transform="scale(0.0040, -0.0040)" d="M213 112c-50 0 -69 -43 -69 -88c0 -77 57 -136 134 -136c50 0 69 43 69 88c0 77 -57 136 -134 136zM491 0c0 -43 -34 -75 -72 -96c-53 -29 -114 -40 -174 -40s-120 11 -173 40c-38 21 -72 53 -72 96s34 75 72 96c53 29 113 40 173 40s121 -11 174 -40
c38 -21 72 -53 72 -96z" fill="currentColor"/>
</g>
<g transform="translate(83.3576, 19.2330)">
<path stroke-width="0.0800" stroke-linejoin="round" stroke-linecap="round" stroke="currentColor" fill="currentColor" d="M11.1551 0.6075C11.2150 0.5681 11.2708 0.5279 11.3222 0.4868L11.3222 0.4868C11.2706 0.5243 11.2146 0.5611 11.1545 0.5971z"/>
</g>
<g transform="translate(83.3576, 19.2330)">
<path stroke-width="0.0800" stroke-linejoin="round" stroke-linecap="round" stroke="currentColor" fill="currentColor" d="M10.6318 0.8863C10.7109 0.8513 10.7865 0.8155 10.8583 0.7788L10.8567 0.7539C10.7847 0.7876 10.7090 0.8206 10.6297 0.8527z"/>
</g>
<g transform="translate(83.3576, 19.2330)">
<path stroke-width="0.0800" stroke-linejoin="round" stroke-linecap="round" stroke="currentColor" fill="currentColor" d="M9.9770 1.1310C10.0720 1.1007 10.1641 1.0695 10.2532 1.0373L10.2503 0.9917C10.1611 1.0213 10.0688 1.0502 9.9737 1.0782z"/>
</g>
<g transform="translate(83.3576, 19.2330)">
<path stroke-width="0.0800" stroke-linejoin="round" stroke-linecap="round" stroke="currentColor" fill="currentColor" d="M9.2148 1.3401C9.3225 1.3147 9.4280 1.2882 9.5310 1.2608L9.5271 1.1984C9.4239 1.2238 9.3183 1.2484 9.2105 1.2721z"/>
</g>
<g transform="translate(83.3576, 19.2330)">
<path stroke-width="0.0800" stroke-linejoin="round" stroke-linecap="round" stroke="currentColor" fill="currentColor" d="M8.3695 1.5121C8.4867 1.4917 8.6023 1.4703 8.7161 1.4479L8.7113 1.3726C8.5975 1.3936 8.4818 1.4137 8.3645 1.4329z"/>
</g>
<g transform="translate(83.3576, 19.2330)">
<path stroke-width="0.0800" stroke-linejoin="round" stroke-linecap="round" stroke="currentColor" fill="currentColor" d="M7.4654 1.6454C7.5888 1.6303 7.7113 1.6141 7.8326 1.5968L7.8273 1.5128C7.7059 1.5292 7.5834 1.5446 7.4600 1.5590z"/>
</g>
<g transform="translate(83.3576, 19.2330)">
<path stroke-width="0.0800" stroke-linejoin="round" stroke-linecap="round" stroke="currentColor" fill="currentColor" d="M6.5267 1.7386C6.6531 1.7289 6.7792 1.7181 6.9048 1.7062L6.8992 1.6174C6.7736 1.6289 6.6474 1.6394 6.5210 1.6489z"/>
</g>
<g transform="translate(83.3576, 19.2330)">
<path stroke-width="0.0800" stroke-linejoin="round" stroke-linecap="round" stroke="currentColor" fill="currentColor" d="M5.5775 1.7900C5.7037 1.7860 5.8302 1.7808 5.9569 1.7745L5.9512 1.6849C5.8246 1.6914 5.6981 1.6968 5.5719 1.7012z"/>
</g>
<g transform="translate(83.3576, 19.2330)">
<path stroke-width="0.0800" stroke-linejoin="round" stroke-linecap="round" stroke="currentColor" fill="currentColor" d="M4.6423 1.7982C4.7650 1.8000 4.8887 1.8007 5.0132 1.8002L5.0077 1.7138C4.8833 1.7150 4.7596 1.7151 4.6370 1.7141z"/>
</g>
<g transform="translate(83.3576, 19.2330)">
<path stroke-width="0.0800" stroke-linejoin="round" stroke-linecap="round" stroke="currentColor" fill="currentColor" d="M3.7451 1.7616C3.8611 1.7695 3.9788 1.7762 4.0979 1.7817L4.0929 1.7024C3.9739 1.6982 3.8563 1.6928 3.7404 1.6863z"/>
</g>
<g transform="translate(83.3576, 19.2330)">
<path stroke-width="0.0800" stroke-linejoin="round" stroke-linecap="round" stroke="currentColor" fill="currentColor" d="M2.9103 1.6787C3.0164 1.6929 3.1247 1.7058 3.2352 1.7175L3.2309 1.6494C3.1206 1.6395 3.0123 1.6285 2.9063 1.6162z"/>
</g>
<g transform="translate(83.3576, 19.2330)">
<path stroke-width="0.0800" stroke-linejoin="round" stroke-linecap="round" stroke="currentColor" fill="currentColor" d="M2.1620 1.5479C2.2549 1.5686 2.3508 1.5880 2.4494 1.6060L2.4461 1.5532C2.3476 1.5374 2.2519 1.5205 2.1591 1.5023z"/>
</g>
<g transform="translate(83.3576, 19.2330)">
<path stroke-width="0.0800" stroke-linejoin="round" stroke-linecap="round" stroke="currentColor" fill="currentColor" d="M1.5246 1.3678C1.6011 1.3952 1.6812 1.4212 1.7647 1.4459L1.7626 1.4122C1.6793 1.3904 1.5994 1.3673 1.5230 1.3430z"/>
</g>
<g transform="translate(83.3576, 19.2330)">
<path stroke-width="0.0800" stroke-linejoin="round" stroke-linecap="round" stroke="currentColor" fill="currentColor" d="M1.0222 1.1368C1.0791 1.1710 1.1402 1.2039 1.2054 1.2354L1.2047 1.2250C1.1398 1.1968 1.0789 1.1675 1.0222 1.1368z"/>
</g>
<g transform="translate(42.1577, 19.2330)">
<path stroke-width="0.0800" stroke-linejoin="round" stroke-linecap="round" stroke="currentColor" fill="currentColor" d="M11.1437 2.6816C11.2043 2.6372 11.2607 2.5916 11.3127 2.5450L11.3127 2.5450C11.2605 2.5881 11.2039 2.6301 11.1432 2.6712z"/>
</g>
<g transform="translate(42.1577, 19.2330)">
<path stroke-width="0.0800" stroke-linejoin="round" stroke-linecap="round" stroke="currentColor" fill="currentColor" d="M10.6162 2.9936C10.6958 2.9548 10.7719 2.9149 10.8443 2.8739L10.8431 2.8490C10.7706 2.8870 10.6943 2.9240 10.6146 2.9599z"/>
</g>
<g transform="translate(42.1577, 19.2330)">
<path stroke-width="0.0800" stroke-linejoin="round" stroke-linecap="round" stroke="currentColor" fill="currentColor" d="M9.9579 3.2625C10.0533 3.2296 10.1459 3.1955 10.2354 3.1602L10.2331 3.1145C10.1435 3.1473 10.0508 3.1790 9.9553 3.2097z"/>
</g>
<g transform="translate(42.1577, 19.2330)">
<path stroke-width="0.0800" stroke-linejoin="round" stroke-linecap="round" stroke="currentColor" fill="currentColor" d="M9.1930 3.4873C9.3010 3.4603 9.4068 3.4321 9.5102 3.4028L9.5071 3.3403C9.4037 3.3677 9.2978 3.3940 9.1897 3.4192z"/>
</g>
<g transform="translate(42.1577, 19.2330)">
<path stroke-width="0.0800" stroke-linejoin="round" stroke-linecap="round" stroke="currentColor" fill="currentColor" d="M8.3457 3.6667C8.4631 3.6458 8.5789 3.6237 8.6930 3.6004L8.6893 3.5251C8.5752 3.5470 8.4593 3.5678 8.3419 3.5874z"/>
</g>
<g transform="translate(42.1577, 19.2330)">
<path stroke-width="0.0800" stroke-linejoin="round" stroke-linecap="round" stroke="currentColor" fill="currentColor" d="M7.4404 3.7995C7.5639 3.7849 7.6865 3.7691 7.8079 3.7520L7.8039 3.6679C7.6824 3.6841 7.5597 3.6991 7.4362 3.7130z"/>
</g>
<g transform="translate(42.1577, 19.2330)">
<path stroke-width="0.0800" stroke-linejoin="round" stroke-linecap="round" stroke="currentColor" fill="currentColor" d="M6.5011 3.8846C6.6275 3.8765 6.7537 3.8671 6.8793 3.8564L6.8750 3.7674C6.7494 3.7778 6.6232 3.7869 6.4968 3.7949z"/>
</g>
<g transform="translate(42.1577, 19.2330)">
<path stroke-width="0.0800" stroke-linejoin="round" stroke-linecap="round" stroke="currentColor" fill="currentColor" d="M5.5522 3.9208C5.6783 3.9193 5.8048 3.9164 5.9314 3.9122L5.9270 3.8225C5.8004 3.8269 5.6740 3.8300 5.5479 3.8319z"/>
</g>
<g transform="translate(42.1577, 19.2330)">
<path stroke-width="0.0800" stroke-linejoin="round" stroke-linecap="round" stroke="currentColor" fill="currentColor" d="M4.6179 3.9069C4.7404 3.9121 4.8640 3.9160 4.9883 3.9185L4.9841 3.8320C4.8598 3.8302 4.7363 3.8271 4.6138 3.8228z"/>
</g>
<g transform="translate(42.1577, 19.2330)">
<path stroke-width="0.0800" stroke-linejoin="round" stroke-linecap="round" stroke="currentColor" fill="currentColor" d="M3.7223 3.8417C3.8381 3.8539 3.9555 3.8646 4.0744 3.8740L4.0705 3.7947C3.9517 3.7866 3.8344 3.7772 3.7187 3.7664z"/>
</g>
<g transform="translate(42.1577, 19.2330)">
<path stroke-width="0.0800" stroke-linejoin="round" stroke-linecap="round" stroke="currentColor" fill="currentColor" d="M2.8898 3.7241C2.9956 3.7434 3.1036 3.7612 3.2137 3.7775L3.2104 3.7095C3.1004 3.6948 2.9924 3.6789 2.8868 3.6617z"/>
</g>
<g transform="translate(42.1577, 19.2330)">
<path stroke-width="0.0800" stroke-linejoin="round" stroke-linecap="round" stroke="currentColor" fill="currentColor" d="M2.1446 3.5529C2.2370 3.5794 2.3325 3.6044 2.4307 3.6279L2.4281 3.5751C2.3300 3.5538 2.2347 3.5312 2.1424 3.5073z"/>
</g>
<g transform="translate(42.1577, 19.2330)">
<path stroke-width="0.0800" stroke-linejoin="round" stroke-linecap="round" stroke="currentColor" fill="currentColor" d="M1.5108 3.3270C1.5868 3.3608 1.6664 3.3931 1.7494 3.4240L1.7477 3.3904C1.6649 3.3623 1.5854 3.3329 1.5096 3.3021z"/>
</g>
<g transform="translate(42.1577, 19.2330)">
<path stroke-width="0.0800" stroke-linejoin="round" stroke-linecap="round" stroke="currentColor" fill="currentColor" d="M1.0127 3.0450C1.0690 3.0864 1.1295 3.1262 1.1941 3.1646L1.1936 3.1542C1.1292 3.1192 1.0688 3.0828 1.0127 3.0450z"/>
</g>
<g transform="translate(22.2887, 26.0066)">
<line stroke-linejoin="round" stroke-linecap="round" stroke-width="0.1000" stroke="currentColor" x1="0" y1="0" x2="0.2500" y2="-0.2500"/>
</g>
<g transform="translate(22.5387, 25.7566)">
<line stroke-linejoin="round" stroke-linecap="round" stroke-width="0.1000" stroke="currentColor" x1="0" y1="0" x2="0.2500" y2="0.2500"/>
</g>
<g transform="translate(21.8388, 27.7066)">
<text font-family="Roboto Light" font-size="2.2001" text-anchor="start" fill="currentColor">
<tspan>1</tspan>
</text>
</g>
<g transform="translate(31.8577, 21.7330)">
<path transform="scale(0.0040, -0.0040)" d="M213 112c-50 0 -69 -43 -69 -88c0 -77 57 -136 134 -136c50 0 69 43 69 88c0 77 -57 136 -134 136zM491 0c0 -43 -34 -75 -72 -96c-53 -29 -114 -40 -174 -40s-120 11 -173 40c-38 21 -72 53 -72 96s34 75 72 96c53 29 113 40 173 40s121 -11 174 -40
c38 -21 72 -53 72 -96z" fill="currentColor"/>
</g>
<g transform="translate(14.4540, 27.7066)">
<text font-family="Roboto Slab Light" font-size="2.2001" text-anchor="start" fill="currentColor">
<tspan>Grau:</tspan>
</text>
</g>
<g transform="translate(62.7577, 20.2330)">
<path transform="scale(0.0040, -0.0040)" d="M213 112c-50 0 -69 -43 -69 -88c0 -77 57 -136 134 -136c50 0 69 43 69 88c0 77 -57 136 -134 136zM491 0c0 -43 -34 -75 -72 -96c-53 -29 -114 -40 -174 -40s-120 11 -173 40c-38 21 -72 53 -72 96s34 75 72 96c53 29 113 40 173 40s121 -11 174 -40
c38 -21 72 -53 72 -96z" fill="currentColor"/>
</g>
<g transform="translate(14.6247, 24.9066)">
<text font-family="Roboto Slab Light" font-size="2.2001" text-anchor="start" fill="currentColor">
<tspan>Nota:</tspan>
</text>
</g>
<g transform="translate(21.7705, 24.9066)">
<text font-family="Roboto Light" font-size="2.2001" text-anchor="start" fill="currentColor">
<tspan>C</tspan>
</text>
</g>
<g transform="translate(15.2540, 20.2330)">
<path transform="scale(0.0040, -0.0040)" d="M266 -635h-6c-108 0 -195 88 -195 197c0 58 53 103 112 103c54 0 95 -47 95 -103c0 -52 -43 -95 -95 -95c-11 0 -21 2 -31 6c26 -39 68 -65 117 -65h4zM461 -203c68 24 113 95 113 164c0 90 -66 179 -173 190c24 -116 46 -231 60 -354zM74 28c0 -135 129 -247 264 -247
c28 0 55 2 82 6c-14 127 -37 245 -63 364c-79 -8 -124 -61 -124 -119c0 -44 25 -91 81 -123c5 -5 7 -10 7 -15c0 -11 -10 -22 -22 -22c-3 0 -6 1 -9 2c-80 43 -117 115 -117 185c0 88 58 174 160 197c-14 58 -29 117 -46 175c-107 -121 -213 -243 -213 -403zM335 -262
c-188 0 -333 172 -333 374c0 177 131 306 248 441c-19 62 -37 125 -45 190c-6 52 -7 104 -7 156c0 115 55 224 149 292c6 5 14 5 20 0c71 -84 133 -245 133 -358c0 -143 -86 -255 -180 -364c21 -68 39 -138 56 -207c4 0 9 1 13 1c155 0 256 -128 256 -261
c0 -76 -33 -154 -107 -210c-22 -17 -47 -28 -73 -36c3 -35 5 -70 5 -105c0 -19 -1 -39 -2 -58c-7 -119 -88 -225 -202 -228l1 43c93 2 153 92 159 191c1 18 2 37 2 55c0 31 -1 61 -4 92c-29 -5 -58 -8 -89 -8zM428 916c0 55 -4 79 -20 129c-99 -48 -162 -149 -162 -259
c0 -74 18 -133 36 -194c80 97 146 198 146 324z" fill="currentColor"/>
</g>
<g transform="translate(21.5577, 22.2330)">
<path transform="scale(0.0040, -0.0040)" d="M213 112c-50 0 -69 -43 -69 -88c0 -77 57 -136 134 -136c50 0 69 43 69 88c0 77 -57 136 -134 136zM491 0c0 -43 -34 -75 -72 -96c-53 -29 -114 -40 -174 -40s-120 11 -173 40c-38 21 -72 53 -72 96s34 75 72 96c53 29 113 40 173 40s121 -11 174 -40
c38 -21 72 -53 72 -96z" fill="currentColor"/>
</g>
<g transform="translate(32.5887, 26.0066)">
<line stroke-linejoin="round" stroke-linecap="round" stroke-width="0.1000" stroke="currentColor" x1="0" y1="0" x2="0.2500" y2="-0.2500"/>
</g>
<g transform="translate(32.8387, 25.7566)">
<line stroke-linejoin="round" stroke-linecap="round" stroke-width="0.1000" stroke="currentColor" x1="0" y1="0" x2="0.2500" y2="0.2500"/>
</g>
<g transform="translate(32.1388, 27.7066)">
<text font-family="Roboto Light" font-size="2.2001" text-anchor="start" fill="currentColor">
<tspan>2</tspan>
</text>
</g>
<g transform="translate(62.8851, 24.9066)">
<text font-family="Roboto Light" font-size="2.2001" text-anchor="start" fill="currentColor">
<tspan>G</tspan>
</text>
</g>
<g transform="translate(53.1887, 26.0066)">
<line stroke-linejoin="round" stroke-linecap="round" stroke-width="0.1000" stroke="currentColor" x1="0" y1="0" x2="0.2500" y2="-0.2500"/>
</g>
<g transform="translate(53.4387, 25.7566)">
<line stroke-linejoin="round" stroke-linecap="round" stroke-width="0.1000" stroke="currentColor" x1="0" y1="0" x2="0.2500" y2="0.2500"/>
</g>
<g transform="translate(52.7387, 27.7066)">
<text font-family="Roboto Light" font-size="2.2001" text-anchor="start" fill="currentColor">
<tspan>4</tspan>
</text>
</g>
<g transform="translate(52.8070, 24.9066)">
<text font-family="Roboto Light" font-size="2.2001" text-anchor="start" fill="currentColor">
<tspan>F</tspan>
</text>
</g>
<g transform="translate(52.4577, 20.7330)">
<path transform="scale(0.0040, -0.0040)" d="M213 112c-50 0 -69 -43 -69 -88c0 -77 57 -136 134 -136c50 0 69 43 69 88c0 77 -57 136 -134 136zM491 0c0 -43 -34 -75 -72 -96c-53 -29 -114 -40 -174 -40s-120 11 -173 40c-38 21 -72 53 -72 96s34 75 72 96c53 29 113 40 173 40s121 -11 174 -40
c38 -21 72 -53 72 -96z" fill="currentColor"/>
</g>
<g transform="translate(31.9851, 24.9066)">
<text font-family="Roboto Light" font-size="2.2001" text-anchor="start" fill="currentColor">
<tspan>D</tspan>
</text>
</g>
<g transform="translate(42.8887, 25.9733)">
<line stroke-linejoin="round" stroke-linecap="round" stroke-width="0.1000" stroke="currentColor" x1="0" y1="0" x2="0.2500" y2="-0.2500"/>
</g>
<g transform="translate(43.1387, 25.7233)">
<line stroke-linejoin="round" stroke-linecap="round" stroke-width="0.1000" stroke="currentColor" x1="0" y1="0" x2="0.2500" y2="0.2500"/>
</g>
<g transform="translate(42.4388, 27.6733)">
<text font-family="Roboto Light" font-size="2.2001" text-anchor="start" fill="currentColor">
<tspan>3</tspan>
</text>
</g>
<g transform="translate(42.1577, 21.2330)">
<path transform="scale(0.0040, -0.0040)" d="M213 112c-50 0 -69 -43 -69 -88c0 -77 57 -136 134 -136c50 0 69 43 69 88c0 77 -57 136 -134 136zM491 0c0 -43 -34 -75 -72 -96c-53 -29 -114 -40 -174 -40s-120 11 -173 40c-38 21 -72 53 -72 96s34 75 72 96c53 29 113 40 173 40s121 -11 174 -40
c38 -21 72 -53 72 -96z" fill="currentColor"/>
</g>
<g transform="translate(42.4388, 24.9066)">
<text font-family="Roboto Light" font-size="2.2001" text-anchor="start" fill="currentColor">
<tspan>E</tspan>
</text>
</g>
</svg>
