<svg xmlns="http://www.w3.org/2000/svg" xmlns:xlink="http://www.w3.org/1999/xlink" version="1.2" width="159.20mm" height="59.57mm" viewBox="14.4540 15.5060 90.5936 33.9008">
<style type="text/css">
<![CDATA[
tspan { white-space: pre; }
]]>
</style>
<g transform="translate(14.4540, 20.5060)">
<line stroke-linejoin="round" stroke-linecap="round" stroke-width="0.1000" stroke="currentColor" x1="0.0500" y1="0" x2="90.5436" y2="0"/>
</g>
<g transform="translate(14.4540, 19.5060)">
<line stroke-linejoin="round" stroke-linecap="round" stroke-width="0.1000" stroke="currentColor" x1="0.0500" y1="0" x2="90.5436" y2="0"/>
</g>
<g transform="translate(14.4540, 18.5060)">
<line stroke-linejoin="round" stroke-linecap="round" stroke-width="0.1000" stroke="currentColor" x1="0.0500" y1="0" x2="90.5436" y2="0"/>
</g>
<g transform="translate(14.4540, 17.5060)">
<line stroke-linejoin="round" stroke-linecap="round" stroke-width="0.1000" stroke="currentColor" x1="0.0500" y1="0" x2="90.5436" y2="0"/>
</g>
<g transform="translate(14.4540, 16.5060)">
<line stroke-linejoin="round" stroke-linecap="round" stroke-width="0.1000" stroke="currentColor" x1="0.0500" y1="0" x2="90.5436" y2="0"/>
</g>
<g transform="translate(70.5062, 16.5060)">
<path transform="scale(0.0040, -0.0040)" d="M557 -125c0 28 23 51 51 51s51 -23 51 -51s-23 -51 -51 -51s-51 23 -51 51zM557 125c0 28 23 51 51 51s51 -23 51 -51s-23 -51 -51 -51s-51 23 -51 51zM232 263c172 0 293 -88 293 -251c0 -263 -263 -414 -516 -521c-3 -3 -6 -4 -9 -4c-7 0 -13 6 -13 13c0 3 1 6 4 9
c202 118 412 265 412 493c0 120 -63 235 -171 235c-74 0 -129 -54 -154 -126c11 5 22 8 34 8c55 0 100 -45 100 -100c0 -58 -44 -106 -100 -106c-60 0 -112 47 -112 106c0 133 102 244 232 244z" fill="currentColor"/>
</g>
<g transform="translate(71.8576, 24.0060)">
<text font-family="Roboto Light" font-size="2.2001" text-anchor="start" fill="currentColor">
<tspan>2. Sub-baixo (F4)</tspan>
</text>
</g>
<g transform="translate(79.8576, 16.5060)">
<path transform="scale(0.0040, -0.0040)" d="M213 112c-50 0 -69 -43 -69 -88c0 -77 57 -136 134 -136c50 0 69 43 69 88c0 77 -57 136 -134 136zM491 0c0 -43 -34 -75 -72 -96c-53 -29 -114 -40 -174 -40s-120 11 -173 40c-38 21 -72 53 -72 96s34 75 72 96c53 29 113 40 173 40s121 -11 174 -40
c38 -21 72 -53 72 -96z" fill="currentColor"/>
</g>
<g transform="translate(14.4540, 24.0060)">
<text font-family="Roboto Slab Light" font-size="2.2001" text-anchor="start" fill="currentColor">
<tspan>Claves:</tspan>
</text>
</g>
<g transform="translate(43.0763, 24.0060)">
<text font-family="Roboto Light" font-size="2.2001" text-anchor="start" fill="currentColor">
<tspan>1. Percussão</tspan>
</text>
</g>
<g transform="translate(42.4083, 18.5060)">
<path transform="scale(0.0040, -0.0040)" d="M490 -250h-92c-6 0 -10 4 -10 10v480c0 6 4 10 10 10h92c6 0 10 -4 10 -10v-480c0 -6 -4 -10 -10 -10zM270 -250h-93c-6 0 -10 4 -10 10v480c0 6 4 10 10 10h93c6 0 10 -4 10 -10v-480c0 -6 -4 -10 -10 -10z" fill="currentColor"/>
</g>
<g transform="translate(14.4540, 32.5060)">
<line stroke-linejoin="round" stroke-linecap="round" stroke-width="0.1000" stroke="currentColor" x1="0.0500" y1="0" x2="90.5436" y2="0"/>
</g>
<g transform="translate(14.4540, 31.5060)">
<line stroke-linejoin="round" stroke-linecap="round" stroke-width="0.1000" stroke="currentColor" x1="0.0500" y1="0" x2="90.5436" y2="0"/>
</g>
<g transform="translate(14.4540, 30.5060)">
<line stroke-linejoin="round" stroke-linecap="round" stroke-width="0.1000" stroke="currentColor" x1="0.0500" y1="0" x2="90.5436" y2="0"/>
</g>
<g transform="translate(14.4540, 29.5060)">
<line stroke-linejoin="round" stroke-linecap="round" stroke-width="0.1000" stroke="currentColor" x1="0.0500" y1="0" x2="90.5436" y2="0"/>
</g>
<g transform="translate(14.4540, 28.5060)">
<line stroke-linejoin="round" stroke-linecap="round" stroke-width="0.1000" stroke="currentColor" x1="0.0500" y1="0" x2="90.5436" y2="0"/>
</g>
<g transform="translate(73.2708, 29.5060)">
<path transform="scale(0.0040, -0.0040)" d="M318 0c0 -33 7 -73 45 -73c29 0 57 31 88 31c123 0 229 -89 229 -208c0 -169 -93 -250 -265 -250c-83 0 -152 61 -152 142c0 42 34 77 76 77s76 -35 76 -77c0 -39 -49 -37 -49 -76c0 -23 24 -38 49 -38c116 0 140 90 140 222c0 106 -12 180 -104 180
c-72 0 -119 -71 -119 -149c0 -9 -7 -14 -14 -14s-13 5 -13 14c0 76 -31 147 -84 200v-471c0 -6 -4 -10 -10 -10h-21c-6 0 -10 4 -10 10v980c0 6 4 10 10 10h21c6 0 10 -4 10 -10v-471c53 53 84 124 84 200c0 9 6 14 13 14s14 -5 14 -14c0 -78 47 -149 119 -149
c92 0 104 74 104 180c0 132 -24 222 -140 222c-25 0 -49 -15 -49 -38c0 -39 49 -37 49 -76c0 -42 -34 -77 -76 -77s-76 35 -76 77c0 81 69 142 152 142c172 0 265 -81 265 -250c0 -119 -106 -208 -229 -208c-31 0 -59 31 -88 31c-38 0 -45 -40 -45 -73zM129 -500h-119
c-6 0 -10 4 -10 10v980c0 6 4 10 10 10h119c6 0 10 -4 10 -10v-980c0 -6 -4 -10 -10 -10z" fill="currentColor"/>
</g>
<g transform="translate(74.1094, 36.0060)">
<text font-family="Roboto Light" font-size="2.2001" text-anchor="start" fill="currentColor">
<tspan>5. Tenor (C4)</tspan>
</text>
</g>
<g transform="translate(82.1094, 29.5060)">
<path transform="scale(0.0040, -0.0040)" d="M213 112c-50 0 -69 -43 -69 -88c0 -77 57 -136 134 -136c50 0 69 43 69 88c0 77 -57 136 -134 136zM491 0c0 -43 -34 -75 -72 -96c-53 -29 -114 -40 -174 -40s-120 11 -173 40c-38 21 -72 53 -72 96s34 75 72 96c53 29 113 40 173 40s121 -11 174 -40
c38 -21 72 -53 72 -96z" fill="currentColor"/>
</g>
<g transform="translate(15.2540, 29.5060)">
<path transform="scale(0.0040, -0.0040)" d="M557 -125c0 28 23 51 51 51s51 -23 51 -51s-23 -51 -51 -51s-51 23 -51 51zM557 125c0 28 23 51 51 51s51 -23 51 -51s-23 -51 -51 -51s-51 23 -51 51zM232 263c172 0 293 -88 293 -251c0 -263 -263 -414 -516 -521c-3 -3 -6 -4 -9 -4c-7 0 -13 6 -13 13c0 3 1 6 4 9
c202 118 412 265 412 493c0 120 -63 235 -171 235c-74 0 -129 -54 -154 -126c11 5 22 8 34 8c55 0 100 -45 100 -100c0 -58 -44 -106 -100 -106c-60 0 -112 47 -112 106c0 133 102 244 232 244z" fill="currentColor"/>
</g>
<g transform="translate(52.2817, 28.5060)">
<path transform="scale(0.0040, -0.0040)" d="M213 112c-50 0 -69 -43 -69 -88c0 -77 57 -136 134 -136c50 0 69 43 69 88c0 77 -57 136 -134 136zM491 0c0 -43 -34 -75 -72 -96c-53 -29 -114 -40 -174 -40s-120 11 -173 40c-38 21 -72 53 -72 96s34 75 72 96c53 29 113 40 173 40s121 -11 174 -40
c38 -21 72 -53 72 -96z" fill="currentColor"/>
</g>
<g transform="translate(44.2817, 36.0060)">
<text font-family="Roboto Light" font-size="2.2001" text-anchor="start" fill="currentColor">
<tspan>4. Barítono (C4)</tspan>
</text>
</g>
<g transform="translate(43.4431, 28.5060)">
<path transform="scale(0.0040, -0.0040)" d="M318 0c0 -33 7 -73 45 -73c29 0 57 31 88 31c123 0 229 -89 229 -208c0 -169 -93 -250 -265 -250c-83 0 -152 61 -152 142c0 42 34 77 76 77s76 -35 76 -77c0 -39 -49 -37 -49 -76c0 -23 24 -38 49 -38c116 0 140 90 140 222c0 106 -12 180 -104 180
c-72 0 -119 -71 -119 -149c0 -9 -7 -14 -14 -14s-13 5 -13 14c0 76 -31 147 -84 200v-471c0 -6 -4 -10 -10 -10h-21c-6 0 -10 4 -10 10v980c0 6 4 10 10 10h21c6 0 10 -4 10 -10v-471c53 53 84 124 84 200c0 9 6 14 13 14s14 -5 14 -14c0 -78 47 -149 119 -149
c92 0 104 74 104 180c0 132 -24 222 -140 222c-25 0 -49 -15 -49 -38c0 -39 49 -37 49 -76c0 -42 -34 -77 -76 -77s-76 35 -76 77c0 81 69 142 152 142c172 0 265 -81 265 -250c0 -119 -106 -208 -229 -208c-31 0 -59 31 -88 31c-38 0 -45 -40 -45 -73zM129 -500h-119
c-6 0 -10 4 -10 10v980c0 6 4 10 10 10h119c6 0 10 -4 10 -10v-980c0 -6 -4 -10 -10 -10z" fill="currentColor"/>
</g>
<g transform="translate(14.4540, 36.0060)">
<text font-family="Roboto Light" font-size="2.2001" text-anchor="start" fill="currentColor">
<tspan>3. Baixo (F4)</tspan>
</text>
</g>
<g transform="translate(22.4540, 29.5060)">
<path transform="scale(0.0040, -0.0040)" d="M213 112c-50 0 -69 -43 -69 -88c0 -77 57 -136 134 -136c50 0 69 43 69 88c0 77 -57 136 -134 136zM491 0c0 -43 -34 -75 -72 -96c-53 -29 -114 -40 -174 -40s-120 11 -173 40c-38 21 -72 53 -72 96s34 75 72 96c53 29 113 40 173 40s121 -11 174 -40
c38 -21 72 -53 72 -96z" fill="currentColor"/>
</g>
<g transform="translate(14.4540, 44.5060)">
<line stroke-linejoin="round" stroke-linecap="round" stroke-width="0.1000" stroke="currentColor" x1="0.0500" y1="0" x2="90.5436" y2="0"/>
</g>
<g transform="translate(14.4540, 43.5060)">
<line stroke-linejoin="round" stroke-linecap="round" stroke-width="0.1000" stroke="currentColor" x1="0.0500" y1="0" x2="90.5436" y2="0"/>
</g>
<g transform="translate(14.4540, 42.5060)">
<line stroke-linejoin="round" stroke-linecap="round" stroke-width="0.1000" stroke="currentColor" x1="0.0500" y1="0" x2="90.5436" y2="0"/>
</g>
<g transform="translate(14.4540, 41.5060)">
<line stroke-linejoin="round" stroke-linecap="round" stroke-width="0.1000" stroke="currentColor" x1="0.0500" y1="0" x2="90.5436" y2="0"/>
</g>
<g transform="translate(14.4540, 40.5060)">
<line stroke-linejoin="round" stroke-linecap="round" stroke-width="0.1000" stroke="currentColor" x1="0.0500" y1="0" x2="90.5436" y2="0"/>
</g>
<g transform="translate(87.3541, 44.5060)">
<path transform="scale(0.0040, -0.0040)" d="M266 -635h-6c-108 0 -195 88 -195 197c0 58 53 103 112 103c54 0 95 -47 95 -103c0 -52 -43 -95 -95 -95c-11 0 -21 2 -31 6c26 -39 68 -65 117 -65h4zM461 -203c68 24 113 95 113 164c0 90 -66 179 -173 190c24 -116 46 -231 60 -354zM74 28c0 -135 129 -247 264 -247
c28 0 55 2 82 6c-14 127 -37 245 -63 364c-79 -8 -124 -61 -124 -119c0 -44 25 -91 81 -123c5 -5 7 -10 7 -15c0 -11 -10 -22 -22 -22c-3 0 -6 1 -9 2c-80 43 -117 115 -117 185c0 88 58 174 160 197c-14 58 -29 117 -46 175c-107 -121 -213 -243 -213 -403zM335 -262
c-188 0 -333 172 -333 374c0 177 131 306 248 441c-19 62 -37 125 -45 190c-6 52 -7 104 -7 156c0 115 55 224 149 292c6 5 14 5 20 0c71 -84 133 -245 133 -358c0 -143 -86 -255 -180 -364c21 -68 39 -138 56 -207c4 0 9 1 13 1c155 0 256 -128 256 -261
c0 -76 -33 -154 -107 -210c-22 -17 -47 -28 -73 -36c3 -35 5 -70 5 -105c0 -19 -1 -39 -2 -58c-7 -119 -88 -225 -202 -228l1 43c93 2 153 92 159 191c1 18 2 37 2 55c0 31 -1 61 -4 92c-29 -5 -58 -8 -89 -8zM428 916c0 55 -4 79 -20 129c-99 -48 -162 -149 -162 -259
c0 -74 18 -133 36 -194c80 97 146 198 146 324z" fill="currentColor"/>
</g>
<g transform="translate(92.9713, 44.5060)">
<path transform="scale(0.0040, -0.0040)" d="M213 112c-50 0 -69 -43 -69 -88c0 -77 57 -136 134 -136c50 0 69 43 69 88c0 77 -57 136 -134 136zM491 0c0 -43 -34 -75 -72 -96c-53 -29 -114 -40 -174 -40s-120 11 -173 40c-38 21 -72 53 -72 96s34 75 72 96c53 29 113 40 173 40s121 -11 174 -40
c38 -21 72 -53 72 -96z" fill="currentColor"/>
</g>
<g transform="translate(70.9310, 48.9642)">
<text font-family="Roboto Light" font-size="2.2001" text-anchor="start" fill="currentColor">
<tspan>9. Sol (G4)</tspan>
</text>
</g>
<g transform="translate(72.4835, 43.5060)">
<path transform="scale(0.0040, -0.0040)" d="M266 -635h-6c-108 0 -195 88 -195 197c0 58 53 103 112 103c54 0 95 -47 95 -103c0 -52 -43 -95 -95 -95c-11 0 -21 2 -31 6c26 -39 68 -65 117 -65h4zM461 -203c68 24 113 95 113 164c0 90 -66 179 -173 190c24 -116 46 -231 60 -354zM74 28c0 -135 129 -247 264 -247
c28 0 55 2 82 6c-14 127 -37 245 -63 364c-79 -8 -124 -61 -124 -119c0 -44 25 -91 81 -123c5 -5 7 -10 7 -15c0 -11 -10 -22 -22 -22c-3 0 -6 1 -9 2c-80 43 -117 115 -117 185c0 88 58 174 160 197c-14 58 -29 117 -46 175c-107 -121 -213 -243 -213 -403zM335 -262
c-188 0 -333 172 -333 374c0 177 131 306 248 441c-19 62 -37 125 -45 190c-6 52 -7 104 -7 156c0 115 55 224 149 292c6 5 14 5 20 0c71 -84 133 -245 133 -358c0 -143 -86 -255 -180 -364c21 -68 39 -138 56 -207c4 0 9 1 13 1c155 0 256 -128 256 -261
c0 -76 -33 -154 -107 -210c-22 -17 -47 -28 -73 -36c3 -35 5 -70 5 -105c0 -19 -1 -39 -2 -58c-7 -119 -88 -225 -202 -228l1 43c93 2 153 92 159 191c1 18 2 37 2 55c0 31 -1 61 -4 92c-29 -5 -58 -8 -89 -8zM428 916c0 55 -4 79 -20 129c-99 -48 -162 -149 -162 -259
c0 -74 18 -133 36 -194c80 97 146 198 146 324z" fill="currentColor"/>
</g>
<g transform="translate(78.9310, 43.5060)">
<path transform="scale(0.0040, -0.0040)" d="M213 112c-50 0 -69 -43 -69 -88c0 -77 57 -136 134 -136c50 0 69 43 69 88c0 77 -57 136 -134 136zM491 0c0 -43 -34 -75 -72 -96c-53 -29 -114 -40 -174 -40s-120 11 -173 40c-38 21 -72 53 -72 96s34 75 72 96c53 29 113 40 173 40s121 -11 174 -40
c38 -21 72 -53 72 -96z" fill="currentColor"/>
</g>
<g transform="translate(84.9713, 48.9642)">
<text font-family="Roboto Light" font-size="2.2001" text-anchor="start" fill="currentColor">
<tspan>10. Francesa (G4)</tspan>
</text>
</g>
<g transform="translate(28.6493, 48.9642)">
<text font-family="Roboto Light" font-size="2.2001" text-anchor="start" fill="currentColor">
<tspan>7. Meio-soprano (C4)</tspan>
</text>
</g>
<g transform="translate(36.6493, 43.5060)">
<path transform="scale(0.0040, -0.0040)" d="M213 112c-50 0 -69 -43 -69 -88c0 -77 57 -136 134 -136c50 0 69 43 69 88c0 77 -57 136 -134 136zM491 0c0 -43 -34 -75 -72 -96c-53 -29 -114 -40 -174 -40s-120 11 -173 40c-38 21 -72 53 -72 96s34 75 72 96c53 29 113 40 173 40s121 -11 174 -40
c38 -21 72 -53 72 -96z" fill="currentColor"/>
</g>
<g transform="translate(14.4540, 48.9642)">
<text font-family="Roboto Light" font-size="2.2001" text-anchor="start" fill="currentColor">
<tspan>6. Alto (C4)</tspan>
</text>
</g>
<g transform="translate(22.4540, 42.5060)">
<path transform="scale(0.0040, -0.0040)" d="M213 112c-50 0 -69 -43 -69 -88c0 -77 57 -136 134 -136c50 0 69 43 69 88c0 77 -57 136 -134 136zM491 0c0 -43 -34 -75 -72 -96c-53 -29 -114 -40 -174 -40s-120 11 -173 40c-38 21 -72 53 -72 96s34 75 72 96c53 29 113 40 173 40s121 -11 174 -40
c38 -21 72 -53 72 -96z" fill="currentColor"/>
</g>
<g transform="translate(30.8771, 43.5060)">
<path transform="scale(0.0040, -0.0040)" d="M318 0c0 -33 7 -73 45 -73c29 0 57 31 88 31c123 0 229 -89 229 -208c0 -169 -93 -250 -265 -250c-83 0 -152 61 -152 142c0 42 34 77 76 77s76 -35 76 -77c0 -39 -49 -37 -49 -76c0 -23 24 -38 49 -38c116 0 140 90 140 222c0 106 -12 180 -104 180
c-72 0 -119 -71 -119 -149c0 -9 -7 -14 -14 -14s-13 5 -13 14c0 76 -31 147 -84 200v-471c0 -6 -4 -10 -10 -10h-21c-6 0 -10 4 -10 10v980c0 6 4 10 10 10h21c6 0 10 -4 10 -10v-471c53 53 84 124 84 200c0 9 6 14 13 14s14 -5 14 -14c0 -78 47 -149 119 -149
c92 0 104 74 104 180c0 132 -24 222 -140 222c-25 0 -49 -15 -49 -38c0 -39 49 -37 49 -76c0 -42 -34 -77 -76 -77s-76 35 -76 77c0 81 69 142 152 142c172 0 265 -81 265 -250c0 -119 -106 -208 -229 -208c-31 0 -59 31 -88 31c-38 0 -45 -40 -45 -73zM129 -500h-119
c-6 0 -10 4 -10 10v980c0 6 4 10 10 10h119c6 0 10 -4 10 -10v-980c0 -6 -4 -10 -10 -10z" fill="currentColor"/>
</g>
<g transform="translate(15.2540, 42.5060)">
<path transform="scale(0.0040, -0.0040)" d="M318 0c0 -33 7 -73 45 -73c29 0 57 31 88 31c123 0 229 -89 229 -208c0 -169 -93 -250 -265 -250c-83 0 -152 61 -152 142c0 42 34 77 76 77s76 -35 76 -77c0 -39 -49 -37 -49 -76c0 -23 24 -38 49 -38c116 0 140 90 140 222c0 106 -12 180 -104 180
c-72 0 -119 -71 -119 -149c0 -9 -7 -14 -14 -14s-13 5 -13 14c0 76 -31 147 -84 200v-471c0 -6 -4 -10 -10 -10h-21c-6 0 -10 4 -10 10v980c0 6 4 10 10 10h21c6 0 10 -4 10 -10v-471c53 53 84 124 84 200c0 9 6 14 13 14s14 -5 14 -14c0 -78 47 -149 119 -149
c92 0 104 74 104 180c0 132 -24 222 -140 222c-25 0 -49 -15 -49 -38c0 -39 49 -37 49 -76c0 -42 -34 -77 -76 -77s-76 35 -76 77c0 81 69 142 152 142c172 0 265 -81 265 -250c0 -119 -106 -208 -229 -208c-31 0 -59 31 -88 31c-38 0 -45 -40 -45 -73zM129 -500h-119
c-6 0 -10 4 -10 10v980c0 6 4 10 10 10h119c6 0 10 -4 10 -10v-980c0 -6 -4 -10 -10 -10z" fill="currentColor"/>
</g>
<g transform="translate(52.6582, 48.9642)">
<text font-family="Roboto Light" font-size="2.2001" text-anchor="start" fill="currentColor">
<tspan>8. Soprano (C4)</tspan>
</text>
</g>
<g transform="translate(52.9610, 44.5060)">
<path transform="scale(0.0040, -0.0040)" d="M318 0c0 -33 7 -73 45 -73c29 0 57 31 88 31c123 0 229 -89 229 -208c0 -169 -93 -250 -265 -250c-83 0 -152 61 -152 142c0 42 34 77 76 77s76 -35 76 -77c0 -39 -49 -37 -49 -76c0 -23 24 -38 49 -38c116 0 140 90 140 222c0 106 -12 180 -104 180
c-72 0 -119 -71 -119 -149c0 -9 -7 -14 -14 -14s-13 5 -13 14c0 76 -31 147 -84 200v-471c0 -6 -4 -10 -10 -10h-21c-6 0 -10 4 -10 10v980c0 6 4 10 10 10h21c6 0 10 -4 10 -10v-471c53 53 84 124 84 200c0 9 6 14 13 14s14 -5 14 -14c0 -78 47 -149 119 -149
c92 0 104 74 104 180c0 132 -24 222 -140 222c-25 0 -49 -15 -49 -38c0 -39 49 -37 49 -76c0 -42 -34 -77 -76 -77s-76 35 -76 77c0 81 69 142 152 142c172 0 265 -81 265 -250c0 -119 -106 -208 -229 -208c-31 0 -59 31 -88 31c-38 0 -45 -40 -45 -73zM129 -500h-119
c-6 0 -10 4 -10 10v980c0 6 4 10 10 10h119c6 0 10 -4 10 -10v-980c0 -6 -4 -10 -10 -10z" fill="currentColor"/>
</g>
<g transform="translate(60.6582, 44.5060)">
<path transform="scale(0.0040, -0.0040)" d="M213 112c-50 0 -69 -43 -69 -88c0 -77 57 -136 134 -136c50 0 69 43 69 88c0 77 -57 136 -134 136zM491 0c0 -43 -34 -75 -72 -96c-53 -29 -114 -40 -174 -40s-120 11 -173 40c-38 21 -72 53 -72 96s34 75 72 96c53 29 113 40 173 40s121 -11 174 -40
c38 -21 72 -53 72 -96z" fill="currentColor"/>
</g>
</svg>
